<?xml version="1.0" encoding="utf-8" standalone="no"?>
<!DOCTYPE svg PUBLIC "-//W3C//DTD SVG 1.1//EN"
  "http://www.w3.org/Graphics/SVG/1.1/DTD/svg11.dtd">
<svg xmlns:xlink="http://www.w3.org/1999/xlink" width="460.8pt" height="345.6pt" viewBox="0 0 460.8 345.6" xmlns="http://www.w3.org/2000/svg" version="1.1">
 <metadata>
  <rdf:RDF xmlns:dc="http://purl.org/dc/elements/1.1/" xmlns:cc="http://creativecommons.org/ns#" xmlns:rdf="http://www.w3.org/1999/02/22-rdf-syntax-ns#">
   <cc:Work>
    <dc:type rdf:resource="http://purl.org/dc/dcmitype/StillImage"/>
    <dc:date>2026-01-05T19:03:05.012430</dc:date>
    <dc:format>image/svg+xml</dc:format>
    <dc:creator>
     <cc:Agent>
      <dc:title>Matplotlib v3.10.1, https://matplotlib.org/</dc:title>
     </cc:Agent>
    </dc:creator>
   </cc:Work>
  </rdf:RDF>
 </metadata>
 <defs>
  <style type="text/css">*{stroke-linejoin: round; stroke-linecap: butt}</style>
 </defs>
 <g id="figure_1">
  <g id="patch_1">
   <path d="M 0 345.6 
L 460.8 345.6 
L 460.8 0 
L 0 0 
z
" style="fill: #ffffff"/>
  </g>
  <g id="axes_1">
   <g id="patch_2">
    <path d="M 55.193867 302.956 
L 450 302.956 
L 450 27.6 
L 55.193867 27.6 
z
" style="fill: #ffffff"/>
   </g>
   <g id="matplotlib.axis_1">
    <g id="xtick_1">
     <g id="line2d_1">
      <path d="M 73.1396 302.956 
L 73.1396 27.6 
" clip-path="url(#p3f2328dbcd)" style="fill: none; stroke: #b0b0b0; stroke-width: 0.8; stroke-linecap: square"/>
     </g>
     <g id="line2d_2">
      <defs>
       <path id="mb62a41325f" d="M 0 0 
L 0 3.5 
" style="stroke: #000000; stroke-width: 0.8"/>
      </defs>
      <g>
       <use xlink:href="#mb62a41325f" x="73.1396" y="302.956" style="stroke: #000000; stroke-width: 0.8"/>
      </g>
     </g>
     <g id="text_1">
      <!-- $\mathdefault{10^{1}}$ -->
      <g transform="translate(64.3396 317.554437) scale(0.1 -0.1)">
       <defs>
        <path id="Verdana-31" d="M 3388 0 
L 869 0 
L 869 475 
L 1838 475 
L 1838 3594 
L 869 3594 
L 869 4019 
Q 1066 4019 1291 4051 
Q 1516 4084 1631 4147 
Q 1775 4225 1858 4345 
Q 1941 4466 1953 4669 
L 2438 4669 
L 2438 475 
L 3388 475 
L 3388 0 
z
" transform="scale(0.015625)"/>
        <path id="Verdana-30" d="M 3647 2328 
Q 3647 1075 3255 489 
Q 2863 -97 2038 -97 
Q 1200 -97 814 497 
Q 428 1091 428 2322 
Q 428 3563 818 4155 
Q 1209 4747 2038 4747 
Q 2875 4747 3261 4145 
Q 3647 3544 3647 2328 
z
M 2825 909 
Q 2934 1163 2973 1505 
Q 3013 1847 3013 2328 
Q 3013 2803 2973 3153 
Q 2934 3503 2822 3747 
Q 2713 3988 2523 4109 
Q 2334 4231 2038 4231 
Q 1744 4231 1551 4109 
Q 1359 3988 1247 3741 
Q 1141 3509 1102 3137 
Q 1063 2766 1063 2322 
Q 1063 1834 1097 1506 
Q 1131 1178 1244 919 
Q 1347 675 1536 547 
Q 1725 419 2038 419 
Q 2331 419 2525 541 
Q 2719 663 2825 909 
z
" transform="scale(0.015625)"/>
       </defs>
       <use xlink:href="#Verdana-31" transform="translate(0 0.75)"/>
       <use xlink:href="#Verdana-30" transform="translate(63.574219 0.75)"/>
       <use xlink:href="#Verdana-31" transform="translate(128.103008 38.932812) scale(0.7)"/>
      </g>
     </g>
    </g>
    <g id="xtick_2">
     <g id="line2d_3">
      <path d="M 144.922533 302.956 
L 144.922533 27.6 
" clip-path="url(#p3f2328dbcd)" style="fill: none; stroke: #b0b0b0; stroke-width: 0.8; stroke-linecap: square"/>
     </g>
     <g id="line2d_4">
      <g>
       <use xlink:href="#mb62a41325f" x="144.922533" y="302.956" style="stroke: #000000; stroke-width: 0.8"/>
      </g>
     </g>
     <g id="text_2">
      <!-- $\mathdefault{10^{2}}$ -->
      <g transform="translate(136.122533 317.554437) scale(0.1 -0.1)">
       <defs>
        <path id="Verdana-32" d="M 3653 0 
L 503 0 
L 503 653 
Q 831 934 1161 1215 
Q 1491 1497 1775 1775 
Q 2375 2356 2597 2698 
Q 2819 3041 2819 3438 
Q 2819 3800 2580 4004 
Q 2341 4209 1913 4209 
Q 1628 4209 1297 4109 
Q 966 4009 650 3803 
L 619 3803 
L 619 4459 
Q 841 4569 1211 4659 
Q 1581 4750 1928 4750 
Q 2644 4750 3050 4404 
Q 3456 4059 3456 3469 
Q 3456 3203 3389 2973 
Q 3322 2744 3191 2538 
Q 3069 2344 2905 2156 
Q 2741 1969 2506 1741 
Q 2172 1413 1815 1105 
Q 1459 797 1150 534 
L 3653 534 
L 3653 0 
z
" transform="scale(0.015625)"/>
       </defs>
       <use xlink:href="#Verdana-31" transform="translate(0 0.864063)"/>
       <use xlink:href="#Verdana-30" transform="translate(63.574219 0.864063)"/>
       <use xlink:href="#Verdana-32" transform="translate(128.103008 39.046875) scale(0.7)"/>
      </g>
     </g>
    </g>
    <g id="xtick_3">
     <g id="line2d_5">
      <path d="M 216.705467 302.956 
L 216.705467 27.6 
" clip-path="url(#p3f2328dbcd)" style="fill: none; stroke: #b0b0b0; stroke-width: 0.8; stroke-linecap: square"/>
     </g>
     <g id="line2d_6">
      <g>
       <use xlink:href="#mb62a41325f" x="216.705467" y="302.956" style="stroke: #000000; stroke-width: 0.8"/>
      </g>
     </g>
     <g id="text_3">
      <!-- $\mathdefault{10^{3}}$ -->
      <g transform="translate(207.905467 317.554437) scale(0.1 -0.1)">
       <defs>
        <path id="Verdana-33" d="M 3244 2241 
Q 3394 2106 3491 1903 
Q 3588 1700 3588 1378 
Q 3588 1059 3472 793 
Q 3356 528 3147 331 
Q 2913 113 2595 8 
Q 2278 -97 1900 -97 
Q 1513 -97 1138 -4 
Q 763 88 522 197 
L 522 850 
L 569 850 
Q 834 675 1193 559 
Q 1553 444 1888 444 
Q 2084 444 2306 509 
Q 2528 575 2666 703 
Q 2809 841 2879 1006 
Q 2950 1172 2950 1425 
Q 2950 1675 2870 1839 
Q 2791 2003 2650 2097 
Q 2509 2194 2309 2230 
Q 2109 2266 1878 2266 
L 1597 2266 
L 1597 2784 
L 1816 2784 
Q 2291 2784 2573 2982 
Q 2856 3181 2856 3563 
Q 2856 3731 2784 3857 
Q 2713 3984 2584 4066 
Q 2450 4147 2297 4178 
Q 2144 4209 1950 4209 
Q 1653 4209 1318 4103 
Q 984 3997 688 3803 
L 656 3803 
L 656 4456 
Q 878 4566 1248 4658 
Q 1619 4750 1966 4750 
Q 2306 4750 2565 4687 
Q 2825 4625 3034 4488 
Q 3259 4338 3375 4125 
Q 3491 3913 3491 3628 
Q 3491 3241 3217 2952 
Q 2944 2663 2572 2588 
L 2572 2544 
Q 2722 2519 2915 2439 
Q 3109 2359 3244 2241 
z
" transform="scale(0.015625)"/>
       </defs>
       <use xlink:href="#Verdana-31" transform="translate(0 0.864063)"/>
       <use xlink:href="#Verdana-30" transform="translate(63.574219 0.864063)"/>
       <use xlink:href="#Verdana-33" transform="translate(128.103008 39.046875) scale(0.7)"/>
      </g>
     </g>
    </g>
    <g id="xtick_4">
     <g id="line2d_7">
      <path d="M 288.4884 302.956 
L 288.4884 27.6 
" clip-path="url(#p3f2328dbcd)" style="fill: none; stroke: #b0b0b0; stroke-width: 0.8; stroke-linecap: square"/>
     </g>
     <g id="line2d_8">
      <g>
       <use xlink:href="#mb62a41325f" x="288.4884" y="302.956" style="stroke: #000000; stroke-width: 0.8"/>
      </g>
     </g>
     <g id="text_4">
      <!-- $\mathdefault{10^{4}}$ -->
      <g transform="translate(279.6884 317.554437) scale(0.1 -0.1)">
       <defs>
        <path id="Verdana-34" d="M 3759 1309 
L 3069 1309 
L 3069 0 
L 2469 0 
L 2469 1309 
L 241 1309 
L 241 2028 
L 2494 4653 
L 3069 4653 
L 3069 1809 
L 3759 1809 
L 3759 1309 
z
M 2469 1809 
L 2469 3909 
L 666 1809 
L 2469 1809 
z
" transform="scale(0.015625)"/>
       </defs>
       <use xlink:href="#Verdana-31" transform="translate(0 0.925)"/>
       <use xlink:href="#Verdana-30" transform="translate(63.574219 0.925)"/>
       <use xlink:href="#Verdana-34" transform="translate(128.103008 39.107813) scale(0.7)"/>
      </g>
     </g>
    </g>
    <g id="xtick_5">
     <g id="line2d_9">
      <path d="M 360.271333 302.956 
L 360.271333 27.6 
" clip-path="url(#p3f2328dbcd)" style="fill: none; stroke: #b0b0b0; stroke-width: 0.8; stroke-linecap: square"/>
     </g>
     <g id="line2d_10">
      <g>
       <use xlink:href="#mb62a41325f" x="360.271333" y="302.956" style="stroke: #000000; stroke-width: 0.8"/>
      </g>
     </g>
     <g id="text_5">
      <!-- $\mathdefault{10^{5}}$ -->
      <g transform="translate(351.471333 317.554437) scale(0.1 -0.1)">
       <defs>
        <path id="Verdana-35" d="M 3616 1478 
Q 3616 1153 3497 856 
Q 3378 559 3172 356 
Q 2947 138 2636 20 
Q 2325 -97 1916 -97 
Q 1534 -97 1181 -17 
Q 828 63 584 175 
L 584 834 
L 628 834 
Q 884 672 1228 558 
Q 1572 444 1903 444 
Q 2125 444 2333 506 
Q 2541 569 2703 725 
Q 2841 859 2911 1046 
Q 2981 1234 2981 1481 
Q 2981 1722 2898 1887 
Q 2816 2053 2669 2153 
Q 2506 2272 2273 2320 
Q 2041 2369 1753 2369 
Q 1478 2369 1223 2331 
Q 969 2294 784 2256 
L 784 4653 
L 3584 4653 
L 3584 4106 
L 1388 4106 
L 1388 2869 
Q 1522 2881 1662 2887 
Q 1803 2894 1906 2894 
Q 2284 2894 2568 2830 
Q 2853 2766 3091 2603 
Q 3341 2431 3478 2159 
Q 3616 1888 3616 1478 
z
" transform="scale(0.015625)"/>
       </defs>
       <use xlink:href="#Verdana-31" transform="translate(0 0.925)"/>
       <use xlink:href="#Verdana-30" transform="translate(63.574219 0.925)"/>
       <use xlink:href="#Verdana-35" transform="translate(128.103008 39.107813) scale(0.7)"/>
      </g>
     </g>
    </g>
    <g id="xtick_6">
     <g id="line2d_11">
      <path d="M 432.054267 302.956 
L 432.054267 27.6 
" clip-path="url(#p3f2328dbcd)" style="fill: none; stroke: #b0b0b0; stroke-width: 0.8; stroke-linecap: square"/>
     </g>
     <g id="line2d_12">
      <g>
       <use xlink:href="#mb62a41325f" x="432.054267" y="302.956" style="stroke: #000000; stroke-width: 0.8"/>
      </g>
     </g>
     <g id="text_6">
      <!-- $\mathdefault{10^{6}}$ -->
      <g transform="translate(423.254267 317.554437) scale(0.1 -0.1)">
       <defs>
        <path id="Verdana-36" d="M 3722 1509 
Q 3722 800 3255 351 
Q 2788 -97 2109 -97 
Q 1766 -97 1484 9 
Q 1203 116 988 325 
Q 719 584 573 1012 
Q 428 1441 428 2044 
Q 428 2663 561 3141 
Q 694 3619 984 3991 
Q 1259 4344 1693 4542 
Q 2128 4741 2706 4741 
Q 2891 4741 3016 4725 
Q 3141 4709 3269 4669 
L 3269 4072 
L 3238 4072 
Q 3150 4119 2973 4161 
Q 2797 4203 2613 4203 
Q 1941 4203 1541 3783 
Q 1141 3363 1075 2647 
Q 1338 2806 1592 2889 
Q 1847 2972 2181 2972 
Q 2478 2972 2704 2917 
Q 2931 2863 3169 2697 
Q 3444 2506 3583 2215 
Q 3722 1925 3722 1509 
z
M 3088 1484 
Q 3088 1775 3002 1965 
Q 2916 2156 2719 2297 
Q 2575 2397 2400 2428 
Q 2225 2459 2034 2459 
Q 1769 2459 1541 2396 
Q 1313 2334 1072 2203 
Q 1066 2134 1062 2070 
Q 1059 2006 1059 1909 
Q 1059 1416 1161 1130 
Q 1263 844 1441 678 
Q 1584 541 1751 477 
Q 1919 413 2116 413 
Q 2569 413 2828 689 
Q 3088 966 3088 1484 
z
" transform="scale(0.015625)"/>
       </defs>
       <use xlink:href="#Verdana-31" transform="translate(0 0.9625)"/>
       <use xlink:href="#Verdana-30" transform="translate(63.574219 0.9625)"/>
       <use xlink:href="#Verdana-36" transform="translate(128.103008 39.145313) scale(0.7)"/>
      </g>
     </g>
    </g>
    <g id="xtick_7">
     <g id="line2d_13">
      <defs>
       <path id="m6c7cb8a6ae" d="M 0 0 
L 0 2 
" style="stroke: #000000; stroke-width: 0.6"/>
      </defs>
      <g>
       <use xlink:href="#m6c7cb8a6ae" x="57.214646" y="302.956" style="stroke: #000000; stroke-width: 0.6"/>
      </g>
     </g>
    </g>
    <g id="xtick_8">
     <g id="line2d_14">
      <g>
       <use xlink:href="#m6c7cb8a6ae" x="62.020283" y="302.956" style="stroke: #000000; stroke-width: 0.6"/>
      </g>
     </g>
    </g>
    <g id="xtick_9">
     <g id="line2d_15">
      <g>
       <use xlink:href="#m6c7cb8a6ae" x="66.183115" y="302.956" style="stroke: #000000; stroke-width: 0.6"/>
      </g>
     </g>
    </g>
    <g id="xtick_10">
     <g id="line2d_16">
      <g>
       <use xlink:href="#m6c7cb8a6ae" x="69.854993" y="302.956" style="stroke: #000000; stroke-width: 0.6"/>
      </g>
     </g>
    </g>
    <g id="xtick_11">
     <g id="line2d_17">
      <g>
       <use xlink:href="#m6c7cb8a6ae" x="94.748416" y="302.956" style="stroke: #000000; stroke-width: 0.6"/>
      </g>
     </g>
    </g>
    <g id="xtick_12">
     <g id="line2d_18">
      <g>
       <use xlink:href="#m6c7cb8a6ae" x="107.388763" y="302.956" style="stroke: #000000; stroke-width: 0.6"/>
      </g>
     </g>
    </g>
    <g id="xtick_13">
     <g id="line2d_19">
      <g>
       <use xlink:href="#m6c7cb8a6ae" x="116.357232" y="302.956" style="stroke: #000000; stroke-width: 0.6"/>
      </g>
     </g>
    </g>
    <g id="xtick_14">
     <g id="line2d_20">
      <g>
       <use xlink:href="#m6c7cb8a6ae" x="123.313717" y="302.956" style="stroke: #000000; stroke-width: 0.6"/>
      </g>
     </g>
    </g>
    <g id="xtick_15">
     <g id="line2d_21">
      <g>
       <use xlink:href="#m6c7cb8a6ae" x="128.997579" y="302.956" style="stroke: #000000; stroke-width: 0.6"/>
      </g>
     </g>
    </g>
    <g id="xtick_16">
     <g id="line2d_22">
      <g>
       <use xlink:href="#m6c7cb8a6ae" x="133.803216" y="302.956" style="stroke: #000000; stroke-width: 0.6"/>
      </g>
     </g>
    </g>
    <g id="xtick_17">
     <g id="line2d_23">
      <g>
       <use xlink:href="#m6c7cb8a6ae" x="137.966048" y="302.956" style="stroke: #000000; stroke-width: 0.6"/>
      </g>
     </g>
    </g>
    <g id="xtick_18">
     <g id="line2d_24">
      <g>
       <use xlink:href="#m6c7cb8a6ae" x="141.637926" y="302.956" style="stroke: #000000; stroke-width: 0.6"/>
      </g>
     </g>
    </g>
    <g id="xtick_19">
     <g id="line2d_25">
      <g>
       <use xlink:href="#m6c7cb8a6ae" x="166.531349" y="302.956" style="stroke: #000000; stroke-width: 0.6"/>
      </g>
     </g>
    </g>
    <g id="xtick_20">
     <g id="line2d_26">
      <g>
       <use xlink:href="#m6c7cb8a6ae" x="179.171696" y="302.956" style="stroke: #000000; stroke-width: 0.6"/>
      </g>
     </g>
    </g>
    <g id="xtick_21">
     <g id="line2d_27">
      <g>
       <use xlink:href="#m6c7cb8a6ae" x="188.140165" y="302.956" style="stroke: #000000; stroke-width: 0.6"/>
      </g>
     </g>
    </g>
    <g id="xtick_22">
     <g id="line2d_28">
      <g>
       <use xlink:href="#m6c7cb8a6ae" x="195.09665" y="302.956" style="stroke: #000000; stroke-width: 0.6"/>
      </g>
     </g>
    </g>
    <g id="xtick_23">
     <g id="line2d_29">
      <g>
       <use xlink:href="#m6c7cb8a6ae" x="200.780513" y="302.956" style="stroke: #000000; stroke-width: 0.6"/>
      </g>
     </g>
    </g>
    <g id="xtick_24">
     <g id="line2d_30">
      <g>
       <use xlink:href="#m6c7cb8a6ae" x="205.58615" y="302.956" style="stroke: #000000; stroke-width: 0.6"/>
      </g>
     </g>
    </g>
    <g id="xtick_25">
     <g id="line2d_31">
      <g>
       <use xlink:href="#m6c7cb8a6ae" x="209.748982" y="302.956" style="stroke: #000000; stroke-width: 0.6"/>
      </g>
     </g>
    </g>
    <g id="xtick_26">
     <g id="line2d_32">
      <g>
       <use xlink:href="#m6c7cb8a6ae" x="213.42086" y="302.956" style="stroke: #000000; stroke-width: 0.6"/>
      </g>
     </g>
    </g>
    <g id="xtick_27">
     <g id="line2d_33">
      <g>
       <use xlink:href="#m6c7cb8a6ae" x="238.314283" y="302.956" style="stroke: #000000; stroke-width: 0.6"/>
      </g>
     </g>
    </g>
    <g id="xtick_28">
     <g id="line2d_34">
      <g>
       <use xlink:href="#m6c7cb8a6ae" x="250.95463" y="302.956" style="stroke: #000000; stroke-width: 0.6"/>
      </g>
     </g>
    </g>
    <g id="xtick_29">
     <g id="line2d_35">
      <g>
       <use xlink:href="#m6c7cb8a6ae" x="259.923099" y="302.956" style="stroke: #000000; stroke-width: 0.6"/>
      </g>
     </g>
    </g>
    <g id="xtick_30">
     <g id="line2d_36">
      <g>
       <use xlink:href="#m6c7cb8a6ae" x="266.879584" y="302.956" style="stroke: #000000; stroke-width: 0.6"/>
      </g>
     </g>
    </g>
    <g id="xtick_31">
     <g id="line2d_37">
      <g>
       <use xlink:href="#m6c7cb8a6ae" x="272.563446" y="302.956" style="stroke: #000000; stroke-width: 0.6"/>
      </g>
     </g>
    </g>
    <g id="xtick_32">
     <g id="line2d_38">
      <g>
       <use xlink:href="#m6c7cb8a6ae" x="277.369083" y="302.956" style="stroke: #000000; stroke-width: 0.6"/>
      </g>
     </g>
    </g>
    <g id="xtick_33">
     <g id="line2d_39">
      <g>
       <use xlink:href="#m6c7cb8a6ae" x="281.531915" y="302.956" style="stroke: #000000; stroke-width: 0.6"/>
      </g>
     </g>
    </g>
    <g id="xtick_34">
     <g id="line2d_40">
      <g>
       <use xlink:href="#m6c7cb8a6ae" x="285.203793" y="302.956" style="stroke: #000000; stroke-width: 0.6"/>
      </g>
     </g>
    </g>
    <g id="xtick_35">
     <g id="line2d_41">
      <g>
       <use xlink:href="#m6c7cb8a6ae" x="310.097216" y="302.956" style="stroke: #000000; stroke-width: 0.6"/>
      </g>
     </g>
    </g>
    <g id="xtick_36">
     <g id="line2d_42">
      <g>
       <use xlink:href="#m6c7cb8a6ae" x="322.737563" y="302.956" style="stroke: #000000; stroke-width: 0.6"/>
      </g>
     </g>
    </g>
    <g id="xtick_37">
     <g id="line2d_43">
      <g>
       <use xlink:href="#m6c7cb8a6ae" x="331.706032" y="302.956" style="stroke: #000000; stroke-width: 0.6"/>
      </g>
     </g>
    </g>
    <g id="xtick_38">
     <g id="line2d_44">
      <g>
       <use xlink:href="#m6c7cb8a6ae" x="338.662517" y="302.956" style="stroke: #000000; stroke-width: 0.6"/>
      </g>
     </g>
    </g>
    <g id="xtick_39">
     <g id="line2d_45">
      <g>
       <use xlink:href="#m6c7cb8a6ae" x="344.346379" y="302.956" style="stroke: #000000; stroke-width: 0.6"/>
      </g>
     </g>
    </g>
    <g id="xtick_40">
     <g id="line2d_46">
      <g>
       <use xlink:href="#m6c7cb8a6ae" x="349.152016" y="302.956" style="stroke: #000000; stroke-width: 0.6"/>
      </g>
     </g>
    </g>
    <g id="xtick_41">
     <g id="line2d_47">
      <g>
       <use xlink:href="#m6c7cb8a6ae" x="353.314848" y="302.956" style="stroke: #000000; stroke-width: 0.6"/>
      </g>
     </g>
    </g>
    <g id="xtick_42">
     <g id="line2d_48">
      <g>
       <use xlink:href="#m6c7cb8a6ae" x="356.986726" y="302.956" style="stroke: #000000; stroke-width: 0.6"/>
      </g>
     </g>
    </g>
    <g id="xtick_43">
     <g id="line2d_49">
      <g>
       <use xlink:href="#m6c7cb8a6ae" x="381.880149" y="302.956" style="stroke: #000000; stroke-width: 0.6"/>
      </g>
     </g>
    </g>
    <g id="xtick_44">
     <g id="line2d_50">
      <g>
       <use xlink:href="#m6c7cb8a6ae" x="394.520497" y="302.956" style="stroke: #000000; stroke-width: 0.6"/>
      </g>
     </g>
    </g>
    <g id="xtick_45">
     <g id="line2d_51">
      <g>
       <use xlink:href="#m6c7cb8a6ae" x="403.488966" y="302.956" style="stroke: #000000; stroke-width: 0.6"/>
      </g>
     </g>
    </g>
    <g id="xtick_46">
     <g id="line2d_52">
      <g>
       <use xlink:href="#m6c7cb8a6ae" x="410.445451" y="302.956" style="stroke: #000000; stroke-width: 0.6"/>
      </g>
     </g>
    </g>
    <g id="xtick_47">
     <g id="line2d_53">
      <g>
       <use xlink:href="#m6c7cb8a6ae" x="416.129313" y="302.956" style="stroke: #000000; stroke-width: 0.6"/>
      </g>
     </g>
    </g>
    <g id="xtick_48">
     <g id="line2d_54">
      <g>
       <use xlink:href="#m6c7cb8a6ae" x="420.93495" y="302.956" style="stroke: #000000; stroke-width: 0.6"/>
      </g>
     </g>
    </g>
    <g id="xtick_49">
     <g id="line2d_55">
      <g>
       <use xlink:href="#m6c7cb8a6ae" x="425.097782" y="302.956" style="stroke: #000000; stroke-width: 0.6"/>
      </g>
     </g>
    </g>
    <g id="xtick_50">
     <g id="line2d_56">
      <g>
       <use xlink:href="#m6c7cb8a6ae" x="428.76966" y="302.956" style="stroke: #000000; stroke-width: 0.6"/>
      </g>
     </g>
    </g>
    <g id="text_7">
     <!-- Количество элементов в массиве, шт -->
     <g transform="translate(156.014902 331.165375) scale(0.1 -0.1)">
      <defs>
       <path id="Verdana-41a" d="M 4366 0 
L 3572 0 
L 1681 2122 
L 1259 2122 
L 1259 0 
L 641 0 
L 641 4653 
L 1259 4653 
L 1259 2566 
Q 1419 2569 1559 2597 
Q 1700 2625 1825 2703 
Q 1950 2775 2072 2908 
Q 2194 3041 2288 3234 
Q 2328 3319 2383 3447 
Q 2438 3575 2494 3716 
Q 2709 4234 2998 4443 
Q 3288 4653 3850 4653 
L 4097 4653 
L 4097 4100 
L 3838 4100 
Q 3622 4100 3500 4061 
Q 3378 4022 3281 3931 
Q 3191 3850 3123 3712 
Q 3056 3575 2984 3391 
Q 2822 2978 2655 2784 
Q 2488 2591 2206 2447 
L 4366 0 
z
" transform="scale(0.015625)"/>
       <path id="Verdana-43e" d="M 3553 1744 
Q 3553 891 3115 397 
Q 2678 -97 1944 -97 
Q 1203 -97 767 397 
Q 331 891 331 1744 
Q 331 2597 767 3092 
Q 1203 3588 1944 3588 
Q 2678 3588 3115 3092 
Q 3553 2597 3553 1744 
z
M 2947 1744 
Q 2947 2422 2681 2751 
Q 2416 3081 1944 3081 
Q 1466 3081 1202 2751 
Q 938 2422 938 1744 
Q 938 1088 1203 748 
Q 1469 409 1944 409 
Q 2413 409 2680 745 
Q 2947 1081 2947 1744 
z
" transform="scale(0.015625)"/>
       <path id="Verdana-43b" d="M 3394 0 
L 2806 0 
L 2806 2997 
L 1503 2997 
Q 1494 2738 1484 2497 
Q 1475 2256 1466 2063 
Q 1444 1541 1394 1230 
Q 1344 919 1263 713 
Q 1188 519 1095 398 
Q 1003 278 897 181 
Q 791 88 661 41 
Q 531 -6 378 -6 
Q 325 -6 223 -3 
Q 122 0 91 0 
L 91 513 
L 122 513 
Q 147 513 194 509 
Q 241 506 272 506 
Q 347 506 426 528 
Q 506 550 563 609 
Q 722 766 819 1137 
Q 916 1509 947 2213 
Q 959 2469 970 2820 
Q 981 3172 991 3491 
L 3394 3491 
L 3394 0 
z
" transform="scale(0.015625)"/>
       <path id="Verdana-438" d="M 3519 0 
L 2938 0 
L 2938 2622 
L 1109 0 
L 578 0 
L 578 3491 
L 1159 3491 
L 1159 906 
L 2969 3491 
L 3519 3491 
L 3519 0 
z
" transform="scale(0.015625)"/>
       <path id="Verdana-447" d="M 3297 0 
L 2709 0 
L 2709 1341 
Q 2425 1253 2165 1200 
Q 1906 1147 1600 1147 
Q 1038 1147 741 1423 
Q 444 1700 444 2222 
L 444 3491 
L 1031 3491 
L 1031 2522 
Q 1031 2322 1056 2164 
Q 1081 2006 1163 1891 
Q 1244 1778 1391 1718 
Q 1538 1659 1800 1659 
Q 2016 1659 2269 1701 
Q 2522 1744 2709 1800 
L 2709 3491 
L 3297 3491 
L 3297 0 
z
" transform="scale(0.015625)"/>
       <path id="Verdana-435" d="M 3500 1684 
L 928 1684 
Q 928 1363 1025 1123 
Q 1122 884 1291 731 
Q 1453 581 1676 506 
Q 1900 431 2169 431 
Q 2525 431 2886 573 
Q 3247 716 3400 853 
L 3431 853 
L 3431 213 
Q 3134 88 2825 3 
Q 2516 -81 2175 -81 
Q 1306 -81 818 389 
Q 331 859 331 1725 
Q 331 2581 798 3084 
Q 1266 3588 2028 3588 
Q 2734 3588 3117 3175 
Q 3500 2763 3500 2003 
L 3500 1684 
z
M 2928 2134 
Q 2925 2597 2695 2850 
Q 2466 3103 1997 3103 
Q 1525 3103 1245 2825 
Q 966 2547 928 2134 
L 2928 2134 
z
" transform="scale(0.015625)"/>
       <path id="Verdana-441" d="M 3191 219 
Q 2831 50 2573 -14 
Q 2316 -78 2059 -78 
Q 1678 -78 1359 33 
Q 1041 144 813 369 
Q 584 594 457 937 
Q 331 1281 331 1741 
Q 331 2575 793 3073 
Q 1256 3572 2059 3572 
Q 2363 3572 2655 3487 
Q 2947 3403 3191 3281 
L 3191 2628 
L 3156 2628 
Q 2866 2850 2583 2956 
Q 2300 3063 2034 3063 
Q 1513 3063 1227 2713 
Q 941 2363 941 1741 
Q 941 1119 1225 775 
Q 1509 431 2034 431 
Q 2219 431 2401 478 
Q 2584 525 2734 600 
Q 2853 659 2979 742 
Q 3106 825 3156 866 
L 3191 866 
L 3191 219 
z
" transform="scale(0.015625)"/>
       <path id="Verdana-442" d="M 3144 2975 
L 1881 2975 
L 1881 0 
L 1294 0 
L 1294 2975 
L 31 2975 
L 31 3491 
L 3144 3491 
L 3144 2975 
z
" transform="scale(0.015625)"/>
       <path id="Verdana-432" d="M 3459 1056 
Q 3459 803 3357 606 
Q 3256 409 3078 278 
Q 2878 131 2642 65 
Q 2406 0 2022 0 
L 578 0 
L 578 3491 
L 1928 3491 
Q 2319 3491 2517 3464 
Q 2716 3438 2891 3347 
Q 3088 3244 3180 3078 
Q 3272 2913 3272 2688 
Q 3272 2428 3125 2237 
Q 2978 2047 2747 1941 
L 2747 1909 
Q 3056 1834 3257 1620 
Q 3459 1406 3459 1056 
z
M 2669 2597 
Q 2669 2709 2620 2800 
Q 2572 2891 2472 2941 
Q 2341 3006 2177 3014 
Q 2013 3022 1772 3022 
L 1159 3022 
L 1159 2066 
L 1894 2066 
Q 2125 2066 2236 2083 
Q 2347 2100 2459 2169 
Q 2578 2244 2623 2345 
Q 2669 2447 2669 2597 
z
M 2853 1053 
Q 2853 1225 2797 1333 
Q 2741 1441 2550 1531 
Q 2431 1588 2293 1598 
Q 2156 1609 1913 1609 
L 1159 1609 
L 1159 469 
L 1716 469 
Q 2066 469 2255 492 
Q 2444 516 2581 594 
Q 2719 672 2786 784 
Q 2853 897 2853 1053 
z
" transform="scale(0.015625)"/>
       <path id="Verdana-20" transform="scale(0.015625)"/>
       <path id="Verdana-44d" d="M 2691 3141 
Q 2919 2922 3044 2594 
Q 3169 2266 3169 1816 
Q 3169 947 2683 434 
Q 2197 -78 1384 -78 
Q 1066 -78 767 -3 
Q 469 72 259 156 
L 259 800 
L 300 800 
Q 488 653 797 539 
Q 1106 425 1447 425 
Q 1938 425 2244 725 
Q 2550 1025 2588 1606 
L 825 1606 
L 825 2078 
L 2584 2078 
Q 2522 2572 2225 2820 
Q 1928 3069 1484 3069 
Q 1200 3069 919 2973 
Q 638 2878 366 2669 
L 325 2669 
L 325 3313 
Q 522 3391 825 3481 
Q 1128 3572 1450 3572 
Q 1838 3572 2150 3465 
Q 2463 3359 2691 3141 
z
" transform="scale(0.015625)"/>
       <path id="Verdana-43c" d="M 3878 0 
L 3297 0 
L 3297 2756 
L 2428 963 
L 1991 963 
L 1128 2756 
L 1128 0 
L 578 0 
L 578 3491 
L 1288 3491 
L 2238 1538 
L 3156 3491 
L 3878 3491 
L 3878 0 
z
" transform="scale(0.015625)"/>
       <path id="Verdana-43d" d="M 3500 0 
L 2913 0 
L 2913 1572 
L 1166 1572 
L 1166 0 
L 578 0 
L 578 3491 
L 1166 3491 
L 1166 2078 
L 2913 2078 
L 2913 3491 
L 3500 3491 
L 3500 0 
z
" transform="scale(0.015625)"/>
       <path id="Verdana-430" d="M 3291 0 
L 2706 0 
L 2706 372 
Q 2628 319 2495 223 
Q 2363 128 2238 72 
Q 2091 0 1900 -48 
Q 1709 -97 1453 -97 
Q 981 -97 653 215 
Q 325 528 325 1013 
Q 325 1409 495 1654 
Q 666 1900 981 2041 
Q 1300 2181 1747 2231 
Q 2194 2281 2706 2306 
L 2706 2397 
Q 2706 2597 2636 2728 
Q 2566 2859 2434 2934 
Q 2309 3006 2134 3031 
Q 1959 3056 1769 3056 
Q 1538 3056 1253 2995 
Q 969 2934 666 2819 
L 634 2819 
L 634 3416 
Q 806 3463 1131 3519 
Q 1456 3575 1772 3575 
Q 2141 3575 2414 3514 
Q 2688 3453 2888 3306 
Q 3084 3163 3187 2934 
Q 3291 2706 3291 2369 
L 3291 0 
z
M 2706 859 
L 2706 1831 
Q 2438 1816 2073 1784 
Q 1709 1753 1497 1694 
Q 1244 1622 1087 1470 
Q 931 1319 931 1053 
Q 931 753 1112 601 
Q 1294 450 1666 450 
Q 1975 450 2231 570 
Q 2488 691 2706 859 
z
" transform="scale(0.015625)"/>
       <path id="Verdana-2c" d="M 1797 891 
L 916 -1156 
L 459 -1156 
L 1003 891 
L 1797 891 
z
" transform="scale(0.015625)"/>
       <path id="Verdana-448" d="M 5028 0 
L 578 0 
L 578 3491 
L 1166 3491 
L 1166 506 
L 2509 506 
L 2509 3491 
L 3097 3491 
L 3097 506 
L 4441 506 
L 4441 3491 
L 5028 3491 
L 5028 0 
z
" transform="scale(0.015625)"/>
      </defs>
      <use xlink:href="#Verdana-41a"/>
      <use xlink:href="#Verdana-43e" transform="translate(69.287109 0)"/>
      <use xlink:href="#Verdana-43b" transform="translate(129.980469 0)"/>
      <use xlink:href="#Verdana-438" transform="translate(192.041016 0)"/>
      <use xlink:href="#Verdana-447" transform="translate(256.054688 0)"/>
      <use xlink:href="#Verdana-435" transform="translate(316.601562 0)"/>
      <use xlink:href="#Verdana-441" transform="translate(376.171875 0)"/>
      <use xlink:href="#Verdana-442" transform="translate(429.589844 0)"/>
      <use xlink:href="#Verdana-432" transform="translate(479.199219 0)"/>
      <use xlink:href="#Verdana-43e" transform="translate(538.671875 0)"/>
      <use xlink:href="#Verdana-20" transform="translate(599.365234 0)"/>
      <use xlink:href="#Verdana-44d" transform="translate(634.521484 0)"/>
      <use xlink:href="#Verdana-43b" transform="translate(689.208984 0)"/>
      <use xlink:href="#Verdana-435" transform="translate(751.269531 0)"/>
      <use xlink:href="#Verdana-43c" transform="translate(810.839844 0)"/>
      <use xlink:href="#Verdana-435" transform="translate(880.46875 0)"/>
      <use xlink:href="#Verdana-43d" transform="translate(940.039062 0)"/>
      <use xlink:href="#Verdana-442" transform="translate(1003.759766 0)"/>
      <use xlink:href="#Verdana-43e" transform="translate(1053.369141 0)"/>
      <use xlink:href="#Verdana-432" transform="translate(1114.0625 0)"/>
      <use xlink:href="#Verdana-20" transform="translate(1173.535156 0)"/>
      <use xlink:href="#Verdana-432" transform="translate(1208.691406 0)"/>
      <use xlink:href="#Verdana-20" transform="translate(1268.164062 0)"/>
      <use xlink:href="#Verdana-43c" transform="translate(1303.320312 0)"/>
      <use xlink:href="#Verdana-430" transform="translate(1372.949219 0)"/>
      <use xlink:href="#Verdana-441" transform="translate(1433.007812 0)"/>
      <use xlink:href="#Verdana-441" transform="translate(1486.425781 0)"/>
      <use xlink:href="#Verdana-438" transform="translate(1539.84375 0)"/>
      <use xlink:href="#Verdana-432" transform="translate(1603.857422 0)"/>
      <use xlink:href="#Verdana-435" transform="translate(1663.330078 0)"/>
      <use xlink:href="#Verdana-2c" transform="translate(1722.900391 0)"/>
      <use xlink:href="#Verdana-20" transform="translate(1759.277344 0)"/>
      <use xlink:href="#Verdana-448" transform="translate(1794.433594 0)"/>
      <use xlink:href="#Verdana-442" transform="translate(1882.03125 0)"/>
     </g>
    </g>
   </g>
   <g id="matplotlib.axis_2">
    <g id="ytick_1">
     <g id="line2d_57">
      <path d="M 55.193867 170.229463 
L 450 170.229463 
" clip-path="url(#p3f2328dbcd)" style="fill: none; stroke: #b0b0b0; stroke-width: 0.8; stroke-linecap: square"/>
     </g>
     <g id="line2d_58">
      <defs>
       <path id="m546736215d" d="M 0 0 
L -3.5 0 
" style="stroke: #000000; stroke-width: 0.8"/>
      </defs>
      <g>
       <use xlink:href="#m546736215d" x="55.193867" y="170.229463" style="stroke: #000000; stroke-width: 0.8"/>
      </g>
     </g>
     <g id="text_8">
      <!-- $\mathdefault{10^{-8}}$ -->
      <g transform="translate(24.893867 174.028682) scale(0.1 -0.1)">
       <defs>
        <path id="Verdana-2212" d="M 4550 1788 
L 688 1788 
L 688 2288 
L 4550 2288 
L 4550 1788 
z
" transform="scale(0.015625)"/>
        <path id="Verdana-38" d="M 3688 1297 
Q 3688 694 3217 294 
Q 2747 -106 2034 -106 
Q 1278 -106 829 284 
Q 381 675 381 1284 
Q 381 1672 606 1986 
Q 831 2300 1241 2484 
L 1241 2503 
Q 866 2703 686 2940 
Q 506 3178 506 3534 
Q 506 4059 937 4409 
Q 1369 4759 2034 4759 
Q 2731 4759 3147 4425 
Q 3563 4091 3563 3575 
Q 3563 3259 3366 2954 
Q 3169 2650 2788 2478 
L 2788 2459 
Q 3225 2272 3456 1997 
Q 3688 1722 3688 1297 
z
M 2947 3569 
Q 2947 3903 2689 4101 
Q 2431 4300 2031 4300 
Q 1638 4300 1386 4112 
Q 1134 3925 1134 3606 
Q 1134 3381 1261 3217 
Q 1388 3053 1644 2925 
Q 1759 2869 1976 2778 
Q 2194 2688 2400 2628 
Q 2709 2834 2828 3056 
Q 2947 3278 2947 3569 
z
M 3044 1238 
Q 3044 1525 2917 1698 
Q 2791 1872 2422 2047 
Q 2275 2116 2100 2175 
Q 1925 2234 1634 2341 
Q 1353 2188 1183 1925 
Q 1013 1663 1013 1331 
Q 1013 909 1303 634 
Q 1594 359 2041 359 
Q 2497 359 2770 593 
Q 3044 828 3044 1238 
z
" transform="scale(0.015625)"/>
       </defs>
       <use xlink:href="#Verdana-31" transform="translate(0 0.765625)"/>
       <use xlink:href="#Verdana-30" transform="translate(63.574219 0.765625)"/>
       <use xlink:href="#Verdana-2212" transform="translate(128.103008 38.948437) scale(0.7)"/>
       <use xlink:href="#Verdana-38" transform="translate(185.388164 38.948437) scale(0.7)"/>
      </g>
     </g>
    </g>
    <g id="ytick_2">
     <g id="line2d_59">
      <defs>
       <path id="m55588e26e6" d="M 0 0 
L -2 0 
" style="stroke: #000000; stroke-width: 0.6"/>
      </defs>
      <g>
       <use xlink:href="#m55588e26e6" x="55.193867" y="279.020138" style="stroke: #000000; stroke-width: 0.6"/>
      </g>
     </g>
    </g>
    <g id="ytick_3">
     <g id="line2d_60">
      <g>
       <use xlink:href="#m55588e26e6" x="55.193867" y="253.02526" style="stroke: #000000; stroke-width: 0.6"/>
      </g>
     </g>
    </g>
    <g id="ytick_4">
     <g id="line2d_61">
      <g>
       <use xlink:href="#m55588e26e6" x="55.193867" y="232.862065" style="stroke: #000000; stroke-width: 0.6"/>
      </g>
     </g>
    </g>
    <g id="ytick_5">
     <g id="line2d_62">
      <g>
       <use xlink:href="#m55588e26e6" x="55.193867" y="216.387536" style="stroke: #000000; stroke-width: 0.6"/>
      </g>
     </g>
    </g>
    <g id="ytick_6">
     <g id="line2d_63">
      <g>
       <use xlink:href="#m55588e26e6" x="55.193867" y="202.45852" style="stroke: #000000; stroke-width: 0.6"/>
      </g>
     </g>
    </g>
    <g id="ytick_7">
     <g id="line2d_64">
      <g>
       <use xlink:href="#m55588e26e6" x="55.193867" y="190.392657" style="stroke: #000000; stroke-width: 0.6"/>
      </g>
     </g>
    </g>
    <g id="ytick_8">
     <g id="line2d_65">
      <g>
       <use xlink:href="#m55588e26e6" x="55.193867" y="179.749812" style="stroke: #000000; stroke-width: 0.6"/>
      </g>
     </g>
    </g>
    <g id="ytick_9">
     <g id="line2d_66">
      <g>
       <use xlink:href="#m55588e26e6" x="55.193867" y="107.596861" style="stroke: #000000; stroke-width: 0.6"/>
      </g>
     </g>
    </g>
    <g id="ytick_10">
     <g id="line2d_67">
      <g>
       <use xlink:href="#m55588e26e6" x="55.193867" y="70.959137" style="stroke: #000000; stroke-width: 0.6"/>
      </g>
     </g>
    </g>
    <g id="ytick_11">
     <g id="line2d_68">
      <g>
       <use xlink:href="#m55588e26e6" x="55.193867" y="44.964258" style="stroke: #000000; stroke-width: 0.6"/>
      </g>
     </g>
    </g>
    <g id="text_9">
     <!-- Среднее время сортировки элемента, с -->
     <g transform="translate(18.881367 267.916281) rotate(-90) scale(0.1 -0.1)">
      <defs>
       <path id="Verdana-421" d="M 4219 338 
Q 4047 263 3908 197 
Q 3769 131 3544 59 
Q 3353 0 3129 -42 
Q 2906 -84 2638 -84 
Q 2131 -84 1717 58 
Q 1303 200 997 503 
Q 697 800 528 1258 
Q 359 1716 359 2322 
Q 359 2897 521 3350 
Q 684 3803 991 4116 
Q 1288 4419 1708 4578 
Q 2128 4738 2641 4738 
Q 3016 4738 3389 4647 
Q 3763 4556 4219 4328 
L 4219 3594 
L 4172 3594 
Q 3788 3916 3409 4062 
Q 3031 4209 2600 4209 
Q 2247 4209 1964 4095 
Q 1681 3981 1459 3741 
Q 1244 3506 1123 3148 
Q 1003 2791 1003 2322 
Q 1003 1831 1136 1478 
Q 1269 1125 1478 903 
Q 1697 672 1989 561 
Q 2281 450 2606 450 
Q 3053 450 3443 603 
Q 3834 756 4175 1063 
L 4219 1063 
L 4219 338 
z
" transform="scale(0.015625)"/>
       <path id="Verdana-440" d="M 3650 1788 
Q 3650 1363 3528 1011 
Q 3406 659 3184 416 
Q 2978 184 2698 57 
Q 2419 -69 2106 -69 
Q 1834 -69 1614 -9 
Q 1394 50 1166 175 
L 1166 -1288 
L 578 -1288 
L 578 3491 
L 1166 3491 
L 1166 3125 
Q 1400 3322 1692 3455 
Q 1984 3588 2316 3588 
Q 2947 3588 3298 3111 
Q 3650 2634 3650 1788 
z
M 3044 1772 
Q 3044 2403 2828 2715 
Q 2613 3028 2166 3028 
Q 1913 3028 1656 2918 
Q 1400 2809 1166 2631 
L 1166 653 
Q 1416 541 1595 500 
Q 1775 459 2003 459 
Q 2494 459 2769 790 
Q 3044 1122 3044 1772 
z
" transform="scale(0.015625)"/>
       <path id="Verdana-434" d="M 3747 -838 
L 3200 -838 
L 3200 9 
L 575 9 
L 575 -838 
L 28 -838 
L 28 500 
L 406 500 
Q 772 1103 951 1892 
Q 1131 2681 1131 3491 
L 3325 3491 
L 3325 500 
L 3747 500 
L 3747 -838 
z
M 2738 500 
L 2738 2997 
L 1684 2997 
Q 1644 2213 1444 1566 
Q 1244 919 984 500 
L 2738 500 
z
" transform="scale(0.015625)"/>
       <path id="Verdana-44f" d="M 3259 0 
L 2672 0 
L 2672 1384 
L 1981 1384 
L 900 0 
L 209 0 
L 1384 1441 
Q 931 1566 722 1823 
Q 513 2081 513 2500 
Q 513 2778 638 2972 
Q 763 3166 953 3288 
Q 1141 3406 1384 3448 
Q 1628 3491 1916 3491 
L 3259 3491 
L 3259 0 
z
M 2672 1847 
L 2672 3022 
L 1931 3022 
Q 1691 3022 1584 3006 
Q 1478 2991 1353 2922 
Q 1231 2853 1173 2736 
Q 1116 2619 1116 2481 
Q 1116 2309 1152 2203 
Q 1188 2097 1300 2003 
Q 1416 1913 1581 1880 
Q 1747 1847 1950 1847 
L 2672 1847 
z
" transform="scale(0.015625)"/>
       <path id="Verdana-43a" d="M 3728 0 
L 2959 0 
L 1509 1600 
L 1191 1600 
L 1191 0 
L 603 0 
L 603 3491 
L 1191 3491 
L 1191 1984 
Q 1481 1984 1659 2089 
Q 1838 2194 1963 2425 
Q 2006 2509 2048 2604 
Q 2091 2700 2131 2788 
Q 2294 3141 2537 3316 
Q 2781 3491 3238 3491 
L 3506 3491 
L 3506 2984 
L 3247 2984 
Q 3000 2984 2861 2879 
Q 2722 2775 2609 2513 
Q 2484 2219 2345 2073 
Q 2206 1928 2050 1853 
L 3728 0 
z
" transform="scale(0.015625)"/>
      </defs>
      <use xlink:href="#Verdana-421"/>
      <use xlink:href="#Verdana-440" transform="translate(69.824219 0)"/>
      <use xlink:href="#Verdana-435" transform="translate(132.128906 0)"/>
      <use xlink:href="#Verdana-434" transform="translate(191.699219 0)"/>
      <use xlink:href="#Verdana-43d" transform="translate(253.857422 0)"/>
      <use xlink:href="#Verdana-435" transform="translate(317.578125 0)"/>
      <use xlink:href="#Verdana-435" transform="translate(377.148438 0)"/>
      <use xlink:href="#Verdana-20" transform="translate(436.71875 0)"/>
      <use xlink:href="#Verdana-432" transform="translate(471.875 0)"/>
      <use xlink:href="#Verdana-440" transform="translate(531.347656 0)"/>
      <use xlink:href="#Verdana-435" transform="translate(593.652344 0)"/>
      <use xlink:href="#Verdana-43c" transform="translate(653.222656 0)"/>
      <use xlink:href="#Verdana-44f" transform="translate(722.851562 0)"/>
      <use xlink:href="#Verdana-20" transform="translate(782.8125 0)"/>
      <use xlink:href="#Verdana-441" transform="translate(817.96875 0)"/>
      <use xlink:href="#Verdana-43e" transform="translate(871.386719 0)"/>
      <use xlink:href="#Verdana-440" transform="translate(932.080078 0)"/>
      <use xlink:href="#Verdana-442" transform="translate(994.384766 0)"/>
      <use xlink:href="#Verdana-438" transform="translate(1043.994141 0)"/>
      <use xlink:href="#Verdana-440" transform="translate(1108.007812 0)"/>
      <use xlink:href="#Verdana-43e" transform="translate(1170.3125 0)"/>
      <use xlink:href="#Verdana-432" transform="translate(1231.005859 0)"/>
      <use xlink:href="#Verdana-43a" transform="translate(1290.478516 0)"/>
      <use xlink:href="#Verdana-438" transform="translate(1349.658203 0)"/>
      <use xlink:href="#Verdana-20" transform="translate(1413.671875 0)"/>
      <use xlink:href="#Verdana-44d" transform="translate(1448.828125 0)"/>
      <use xlink:href="#Verdana-43b" transform="translate(1503.515625 0)"/>
      <use xlink:href="#Verdana-435" transform="translate(1565.576172 0)"/>
      <use xlink:href="#Verdana-43c" transform="translate(1625.146484 0)"/>
      <use xlink:href="#Verdana-435" transform="translate(1694.775391 0)"/>
      <use xlink:href="#Verdana-43d" transform="translate(1754.345703 0)"/>
      <use xlink:href="#Verdana-442" transform="translate(1818.066406 0)"/>
      <use xlink:href="#Verdana-430" transform="translate(1867.675781 0)"/>
      <use xlink:href="#Verdana-2c" transform="translate(1927.734375 0)"/>
      <use xlink:href="#Verdana-20" transform="translate(1964.111328 0)"/>
      <use xlink:href="#Verdana-441" transform="translate(1999.267578 0)"/>
     </g>
    </g>
   </g>
   <g id="line2d_69">
    <path d="M 73.1396 225.907885 
L 76.110888 223.506156 
L 78.823462 220.233212 
L 83.629099 217.469701 
L 85.779947 216.387536 
L 89.681899 212.911733 
L 94.748416 209.154897 
L 97.719704 206.662057 
L 101.704901 203.497149 
L 105.237915 199.733899 
L 108.410984 197.990386 
L 112.1944 193.678828 
L 116.357232 186.794397 
L 120.02911 184.091571 
L 123.313717 178.157529 
L 127.398514 173.45694 
L 131.009563 168.967631 
L 134.681441 162.304409 
L 138.353319 153.941051 
L 141.982404 147.675349 
L 145.539879 141.357475 
L 149.00733 135.137299 
L 152.860987 147.44296 
L 156.506002 145.853668 
L 159.962136 144.109172 
L 163.762042 141.57085 
L 167.30114 138.792866 
L 171.023668 135.542405 
L 174.590403 131.545077 
L 178.222133 126.449912 
L 181.85828 124.520156 
L 185.45592 119.276645 
L 189.137235 115.062262 
L 192.767149 111.121362 
L 196.379248 120.92519 
L 199.991232 119.623013 
L 203.609774 117.11721 
L 207.276379 115.168423 
L 210.896655 113.130017 
L 214.510051 110.804068 
L 218.137298 273.172273 
L 221.759511 277.144441 
L 225.384225 278.270826 
L 229.011495 280.143395 
L 232.655351 281.509948 
L 236.269028 282.947655 
L 239.894637 283.75148 
L 243.526978 284.577033 
L 247.157802 284.706783 
L 250.777469 286.423749 
L 254.404028 287.554177 
L 258.027285 287.856679 
L 261.658645 288.590357 
L 265.280519 287.25331 
L 268.907151 289.095365 
L 272.532255 289.634722 
L 276.16134 289.997385 
L 279.784828 290.439818 
L 283.410879 289.829297 
L 287.036657 289.920133 
L 290.661686 289.840134 
L 294.288949 290.085951 
L 297.913341 289.081328 
L 301.539615 286.723167 
L 305.164282 287.563917 
L 308.790477 285.964142 
L 312.415542 284.778035 
L 316.041081 283.969757 
L 319.665834 283.818705 
L 323.29168 283.491408 
L 326.917017 283.657205 
L 330.542816 281.540531 
L 334.168007 283.863938 
L 337.793839 283.622457 
L 341.418809 283.808181 
L 345.044614 283.70003 
L 348.669996 199.814046 
L 352.295304 199.37698 
L 355.92053 199.214695 
L 359.545935 198.987625 
L 363.171405 199.387355 
L 366.796884 199.504077 
L 370.422312 199.558792 
L 374.047733 199.278124 
L 377.673107 199.465583 
L 381.298647 199.281582 
L 384.924047 198.88498 
L 388.549379 199.682291 
L 392.174754 155.816818 
L 395.800202 145.800757 
L 399.425645 153.635089 
L 403.051013 148.247715 
L 406.676452 151.306811 
L 410.30184 152.46761 
L 413.927262 145.697116 
L 417.552657 148.478221 
L 421.178054 152.437436 
L 424.80343 142.785877 
L 428.428863 150.870392 
L 432.054267 155.106074 
" clip-path="url(#p3f2328dbcd)" style="fill: none; stroke: #1f77b4; stroke-width: 1.5; stroke-linecap: square"/>
   </g>
   <g id="line2d_70">
    <path d="M 73.1396 225.907885 
L 76.110888 224.999739 
L 78.823462 220.233212 
L 83.629099 218.564985 
L 85.779947 216.387536 
L 89.681899 212.911733 
L 94.748416 208.462482 
L 97.719704 207.278849 
L 101.704901 203.497149 
L 105.237915 201.08594 
L 108.410984 197.990386 
L 112.1944 192.680368 
L 116.357232 187.338735 
L 120.02911 184.796592 
L 123.313717 178.552977 
L 127.398514 173.292799 
L 131.009563 169.666472 
L 134.681441 158.809086 
L 138.353319 153.569199 
L 141.982404 147.28936 
L 145.539879 141.744456 
L 149.00733 135.35257 
L 152.860987 147.171201 
L 156.506002 145.473805 
L 159.962136 144.109172 
L 163.762042 141.498964 
L 167.30114 138.544198 
L 171.023668 135.462499 
L 174.590403 132.000979 
L 178.222133 129.24717 
L 181.85828 124.420238 
L 185.45592 120.121135 
L 189.137235 115.730095 
L 192.767149 110.596424 
L 196.379248 120.045089 
L 199.991232 118.8587 
L 203.609774 117.769021 
L 207.276379 115.401403 
L 210.896655 113.211073 
L 214.510051 110.804068 
L 218.137298 108.997141 
L 221.759511 107.163774 
L 225.384225 104.253054 
L 229.011495 101.036499 
L 232.655351 97.456203 
L 236.269028 93.402208 
L 239.894637 101.37614 
L 243.526978 100.397747 
L 247.157802 98.446566 
L 250.777469 96.910272 
L 254.404028 95.426401 
L 258.027285 93.485581 
L 261.658645 90.744753 
L 265.280519 89.030414 
L 268.907151 86.602318 
L 272.532255 83.869981 
L 276.16134 80.941864 
L 279.784828 77.687866 
L 283.410879 86.082625 
L 287.036657 84.44813 
L 290.661686 83.209308 
L 294.288949 82.340643 
L 297.913341 81.853777 
L 301.539615 79.163141 
L 305.164282 76.708648 
L 308.790477 74.607928 
L 312.415542 72.556909 
L 316.041081 70.435695 
L 319.665834 67.276349 
L 323.29168 64.180856 
L 326.917017 70.142757 
L 330.542816 69.621565 
L 334.168007 68.185471 
L 337.793839 67.611399 
L 341.418809 66.952749 
L 345.044614 65.916356 
L 348.669996 63.737188 
L 352.295304 62.254961 
L 355.92053 61.839037 
L 359.545935 58.841882 
L 363.171405 56.330535 
L 366.796884 54.064836 
L 370.422312 60.745914 
L 374.047733 60.268568 
L 377.673107 60.360273 
L 381.298647 58.167762 
L 384.924047 57.821093 
L 388.549379 57.01798 
L 392.174754 54.513297 
L 395.800202 49.651599 
L 399.425645 49.267346 
L 403.051013 44.304587 
L 406.676452 43.716014 
L 410.30184 41.308206 
L 413.927262 45.986377 
L 417.552657 40.116182 
L 421.178054 44.778729 
L 424.80343 44.303306 
L 428.428863 46.298939 
L 432.054267 46.088522 
" clip-path="url(#p3f2328dbcd)" style="fill: none; stroke: #ff7f0e; stroke-width: 1.5; stroke-linecap: square"/>
   </g>
   <g id="line2d_71">
    <path d="M 73.1396 225.907885 
L 76.110888 223.506156 
L 78.823462 221.552356 
L 83.629099 218.564985 
L 85.779947 216.387536 
L 89.681899 213.76823 
L 94.748416 209.154897 
L 97.719704 206.049446 
L 101.704901 201.943648 
L 105.237915 200.182335 
L 108.410984 197.594938 
L 112.1944 194.014115 
L 116.357232 190.110723 
L 120.02911 189.64278 
L 123.313717 184.914632 
L 127.398514 182.431307 
L 131.009563 181.973187 
L 134.681441 173.163065 
L 138.353319 171.464979 
L 141.982404 169.537048 
L 145.539879 167.610157 
L 149.00733 169.834015 
L 152.860987 169.323419 
L 156.506002 167.709919 
L 159.962136 166.889522 
L 163.762042 165.001573 
L 167.30114 165.172454 
L 171.023668 163.995285 
L 174.590403 162.670006 
L 178.222133 161.815076 
L 181.85828 159.605042 
L 185.45592 158.840132 
L 189.137235 158.259371 
L 192.767149 157.719225 
L 196.379248 156.662909 
L 199.991232 156.379919 
L 203.609774 155.912258 
L 207.276379 154.173668 
L 210.896655 154.685075 
L 214.510051 153.868116 
L 218.137298 154.978623 
L 221.759511 153.844621 
L 225.384225 152.689599 
L 229.011495 153.253988 
L 232.655351 152.099865 
L 236.269028 151.55863 
L 239.894637 151.884769 
L 243.526978 150.427818 
L 247.157802 150.732811 
L 250.777469 148.591657 
L 254.404028 149.645517 
L 258.027285 149.088282 
L 261.658645 148.385483 
L 265.280519 147.379461 
L 268.907151 147.405866 
L 272.532255 146.922087 
L 276.16134 146.4707 
L 279.784828 146.190255 
L 283.410879 145.635829 
L 287.036657 143.705527 
L 290.661686 144.325015 
L 294.288949 143.919494 
L 297.913341 143.487853 
L 301.539615 143.049797 
L 305.164282 142.645395 
L 308.790477 142.013709 
L 312.415542 141.030455 
L 316.041081 140.523878 
L 319.665834 140.36552 
L 323.29168 139.198064 
L 326.917017 139.752757 
L 330.542816 139.150611 
L 334.168007 138.030324 
L 337.793839 138.338871 
L 341.418809 137.848869 
L 345.044614 137.363852 
L 348.669996 136.249766 
L 352.295304 136.54142 
L 355.92053 136.214998 
L 359.545935 135.122027 
L 363.171405 135.346724 
L 366.796884 134.526907 
L 370.422312 134.47119 
L 374.047733 133.468105 
L 377.673107 132.949751 
L 381.298647 133.358206 
L 384.924047 132.067079 
L 388.549379 132.098676 
L 392.174754 129.240951 
L 395.800202 130.732813 
L 399.425645 128.418752 
L 403.051013 127.853603 
L 406.676452 127.555603 
L 410.30184 126.891333 
L 413.927262 126.970216 
L 417.552657 126.13335 
L 421.178054 126.095831 
L 424.80343 126.348103 
L 428.428863 127.316687 
L 432.054267 126.042701 
" clip-path="url(#p3f2328dbcd)" style="fill: none; stroke: #2ca02c; stroke-width: 1.5; stroke-linecap: square"/>
   </g>
   <g id="patch_3">
    <path d="M 55.193867 302.956 
L 55.193867 27.6 
" style="fill: none; stroke: #000000; stroke-width: 0.8; stroke-linejoin: miter; stroke-linecap: square"/>
   </g>
   <g id="patch_4">
    <path d="M 450 302.956 
L 450 27.6 
" style="fill: none; stroke: #000000; stroke-width: 0.8; stroke-linejoin: miter; stroke-linecap: square"/>
   </g>
   <g id="patch_5">
    <path d="M 55.193867 302.956 
L 450 302.956 
" style="fill: none; stroke: #000000; stroke-width: 0.8; stroke-linejoin: miter; stroke-linecap: square"/>
   </g>
   <g id="patch_6">
    <path d="M 55.193867 27.6 
L 450 27.6 
" style="fill: none; stroke: #000000; stroke-width: 0.8; stroke-linejoin: miter; stroke-linecap: square"/>
   </g>
   <g id="text_10">
    <!-- Сортировка чисел (int32) -->
    <g transform="translate(159.762715 21.6) scale(0.14 -0.14)">
     <defs>
      <path id="Verdana-28" d="M 2447 -1288 
L 1731 -1288 
Q 1178 -653 872 97 
Q 566 847 566 1788 
Q 566 2728 872 3478 
Q 1178 4228 1731 4863 
L 2447 4863 
L 2447 4831 
Q 2194 4603 1964 4304 
Q 1734 4006 1538 3609 
Q 1350 3225 1233 2762 
Q 1116 2300 1116 1788 
Q 1116 1253 1230 809 
Q 1344 366 1538 -34 
Q 1725 -419 1965 -730 
Q 2206 -1041 2447 -1256 
L 2447 -1288 
z
" transform="scale(0.015625)"/>
      <path id="Verdana-69" d="M 1209 4075 
L 547 4075 
L 547 4684 
L 1209 4684 
L 1209 4075 
z
M 1172 0 
L 584 0 
L 584 3491 
L 1172 3491 
L 1172 0 
z
" transform="scale(0.015625)"/>
      <path id="Verdana-6e" d="M 3497 0 
L 2909 0 
L 2909 1988 
Q 2909 2228 2881 2439 
Q 2853 2650 2778 2769 
Q 2700 2900 2553 2964 
Q 2406 3028 2172 3028 
Q 1931 3028 1668 2909 
Q 1406 2791 1166 2606 
L 1166 0 
L 578 0 
L 578 3491 
L 1166 3491 
L 1166 3103 
Q 1441 3331 1734 3459 
Q 2028 3588 2338 3588 
Q 2903 3588 3200 3247 
Q 3497 2906 3497 2266 
L 3497 0 
z
" transform="scale(0.015625)"/>
      <path id="Verdana-74" d="M 2391 31 
Q 2225 -13 2029 -41 
Q 1834 -69 1681 -69 
Q 1147 -69 869 218 
Q 591 506 591 1141 
L 591 2997 
L 194 2997 
L 194 3491 
L 591 3491 
L 591 4494 
L 1178 4494 
L 1178 3491 
L 2391 3491 
L 2391 2997 
L 1178 2997 
L 1178 1406 
Q 1178 1131 1190 976 
Q 1203 822 1278 688 
Q 1347 563 1467 505 
Q 1588 447 1834 447 
Q 1978 447 2134 489 
Q 2291 531 2359 559 
L 2391 559 
L 2391 31 
z
" transform="scale(0.015625)"/>
      <path id="Verdana-29" d="M 2341 1788 
Q 2341 847 2034 97 
Q 1728 -653 1175 -1288 
L 459 -1288 
L 459 -1256 
Q 700 -1041 942 -730 
Q 1184 -419 1369 -34 
Q 1563 366 1677 809 
Q 1791 1253 1791 1788 
Q 1791 2300 1675 2762 
Q 1559 3225 1369 3609 
Q 1172 4006 942 4304 
Q 713 4603 459 4831 
L 459 4863 
L 1175 4863 
Q 1728 4228 2034 3478 
Q 2341 2728 2341 1788 
z
" transform="scale(0.015625)"/>
     </defs>
     <use xlink:href="#Verdana-421"/>
     <use xlink:href="#Verdana-43e" transform="translate(69.824219 0)"/>
     <use xlink:href="#Verdana-440" transform="translate(130.517578 0)"/>
     <use xlink:href="#Verdana-442" transform="translate(192.822266 0)"/>
     <use xlink:href="#Verdana-438" transform="translate(242.431641 0)"/>
     <use xlink:href="#Verdana-440" transform="translate(306.445312 0)"/>
     <use xlink:href="#Verdana-43e" transform="translate(368.75 0)"/>
     <use xlink:href="#Verdana-432" transform="translate(429.443359 0)"/>
     <use xlink:href="#Verdana-43a" transform="translate(488.916016 0)"/>
     <use xlink:href="#Verdana-430" transform="translate(548.095703 0)"/>
     <use xlink:href="#Verdana-20" transform="translate(608.154297 0)"/>
     <use xlink:href="#Verdana-447" transform="translate(643.310547 0)"/>
     <use xlink:href="#Verdana-438" transform="translate(703.857422 0)"/>
     <use xlink:href="#Verdana-441" transform="translate(767.871094 0)"/>
     <use xlink:href="#Verdana-435" transform="translate(821.289062 0)"/>
     <use xlink:href="#Verdana-43b" transform="translate(880.859375 0)"/>
     <use xlink:href="#Verdana-20" transform="translate(942.919922 0)"/>
     <use xlink:href="#Verdana-28" transform="translate(978.076172 0)"/>
     <use xlink:href="#Verdana-69" transform="translate(1023.486328 0)"/>
     <use xlink:href="#Verdana-6e" transform="translate(1050.927734 0)"/>
     <use xlink:href="#Verdana-74" transform="translate(1114.208984 0)"/>
     <use xlink:href="#Verdana-33" transform="translate(1153.613281 0)"/>
     <use xlink:href="#Verdana-32" transform="translate(1217.1875 0)"/>
     <use xlink:href="#Verdana-29" transform="translate(1280.761719 0)"/>
    </g>
   </g>
   <g id="legend_1">
    <g id="patch_7">
     <path d="M 62.193867 79.432812 
L 207.765742 79.432812 
Q 209.765742 79.432812 209.765742 77.432812 
L 209.765742 34.6 
Q 209.765742 32.6 207.765742 32.6 
L 62.193867 32.6 
Q 60.193867 32.6 60.193867 34.6 
L 60.193867 77.432812 
Q 60.193867 79.432812 62.193867 79.432812 
z
" style="fill: #ffffff; opacity: 0.8; stroke: #cccccc; stroke-linejoin: miter"/>
    </g>
    <g id="line2d_72">
     <path d="M 64.193867 40.698437 
L 74.193867 40.698437 
L 84.193867 40.698437 
" style="fill: none; stroke: #1f77b4; stroke-width: 1.5; stroke-linecap: square"/>
    </g>
    <g id="text_11">
     <!-- std::stable_sort+radix -->
     <g transform="translate(92.193867 44.198437) scale(0.1 -0.1)">
      <defs>
       <path id="Verdana-73" d="M 3072 1006 
Q 3072 528 2676 222 
Q 2281 -84 1597 -84 
Q 1209 -84 886 8 
Q 563 100 344 209 
L 344 869 
L 375 869 
Q 653 659 993 536 
Q 1334 413 1647 413 
Q 2034 413 2253 538 
Q 2472 663 2472 931 
Q 2472 1138 2353 1244 
Q 2234 1350 1897 1425 
Q 1772 1453 1570 1490 
Q 1369 1528 1203 1572 
Q 744 1694 551 1930 
Q 359 2166 359 2509 
Q 359 2725 448 2915 
Q 538 3106 719 3256 
Q 894 3403 1164 3489 
Q 1434 3575 1769 3575 
Q 2081 3575 2401 3498 
Q 2722 3422 2934 3313 
L 2934 2684 
L 2903 2684 
Q 2678 2850 2356 2964 
Q 2034 3078 1725 3078 
Q 1403 3078 1181 2954 
Q 959 2831 959 2588 
Q 959 2372 1094 2263 
Q 1225 2153 1519 2084 
Q 1681 2047 1882 2009 
Q 2084 1972 2219 1941 
Q 2628 1847 2850 1619 
Q 3072 1388 3072 1006 
z
" transform="scale(0.015625)"/>
       <path id="Verdana-64" d="M 3409 0 
L 2822 0 
L 2822 366 
Q 2569 147 2294 25 
Q 2019 -97 1697 -97 
Q 1072 -97 705 384 
Q 338 866 338 1719 
Q 338 2163 464 2509 
Q 591 2856 806 3100 
Q 1019 3338 1301 3463 
Q 1584 3588 1888 3588 
Q 2163 3588 2375 3530 
Q 2588 3472 2822 3350 
L 2822 4863 
L 3409 4863 
L 3409 0 
z
M 2822 859 
L 2822 2863 
Q 2584 2969 2396 3009 
Q 2209 3050 1988 3050 
Q 1494 3050 1219 2706 
Q 944 2363 944 1731 
Q 944 1109 1156 786 
Q 1369 463 1838 463 
Q 2088 463 2344 573 
Q 2600 684 2822 859 
z
" transform="scale(0.015625)"/>
       <path id="Verdana-3a" d="M 1828 2600 
L 1081 2600 
L 1081 3491 
L 1828 3491 
L 1828 2600 
z
M 1828 0 
L 1081 0 
L 1081 891 
L 1828 891 
L 1828 0 
z
" transform="scale(0.015625)"/>
       <path id="Verdana-61" d="M 3291 0 
L 2706 0 
L 2706 372 
Q 2628 319 2495 223 
Q 2363 128 2238 72 
Q 2091 0 1900 -48 
Q 1709 -97 1453 -97 
Q 981 -97 653 215 
Q 325 528 325 1013 
Q 325 1409 495 1654 
Q 666 1900 981 2041 
Q 1300 2181 1747 2231 
Q 2194 2281 2706 2306 
L 2706 2397 
Q 2706 2597 2636 2728 
Q 2566 2859 2434 2934 
Q 2309 3006 2134 3031 
Q 1959 3056 1769 3056 
Q 1538 3056 1253 2995 
Q 969 2934 666 2819 
L 634 2819 
L 634 3416 
Q 806 3463 1131 3519 
Q 1456 3575 1772 3575 
Q 2141 3575 2414 3514 
Q 2688 3453 2888 3306 
Q 3084 3163 3187 2934 
Q 3291 2706 3291 2369 
L 3291 0 
z
M 2706 859 
L 2706 1831 
Q 2438 1816 2073 1784 
Q 1709 1753 1497 1694 
Q 1244 1622 1087 1470 
Q 931 1319 931 1053 
Q 931 753 1112 601 
Q 1294 450 1666 450 
Q 1975 450 2231 570 
Q 2488 691 2706 859 
z
" transform="scale(0.015625)"/>
       <path id="Verdana-62" d="M 3650 1772 
Q 3650 1334 3526 984 
Q 3403 634 3194 397 
Q 2972 150 2706 26 
Q 2441 -97 2122 -97 
Q 1825 -97 1603 -26 
Q 1381 44 1166 163 
L 1128 0 
L 578 0 
L 578 4863 
L 1166 4863 
L 1166 3125 
Q 1413 3328 1691 3458 
Q 1969 3588 2316 3588 
Q 2934 3588 3292 3113 
Q 3650 2638 3650 1772 
z
M 3044 1756 
Q 3044 2381 2837 2704 
Q 2631 3028 2172 3028 
Q 1916 3028 1653 2917 
Q 1391 2806 1166 2631 
L 1166 631 
Q 1416 519 1595 475 
Q 1775 431 2003 431 
Q 2491 431 2767 751 
Q 3044 1072 3044 1756 
z
" transform="scale(0.015625)"/>
       <path id="Verdana-6c" d="M 1172 0 
L 584 0 
L 584 4863 
L 1172 4863 
L 1172 0 
z
" transform="scale(0.015625)"/>
       <path id="Verdana-65" d="M 3500 1684 
L 928 1684 
Q 928 1363 1025 1123 
Q 1122 884 1291 731 
Q 1453 581 1676 506 
Q 1900 431 2169 431 
Q 2525 431 2886 573 
Q 3247 716 3400 853 
L 3431 853 
L 3431 213 
Q 3134 88 2825 3 
Q 2516 -81 2175 -81 
Q 1306 -81 818 389 
Q 331 859 331 1725 
Q 331 2581 798 3084 
Q 1266 3588 2028 3588 
Q 2734 3588 3117 3175 
Q 3500 2763 3500 2003 
L 3500 1684 
z
M 2928 2134 
Q 2925 2597 2695 2850 
Q 2466 3103 1997 3103 
Q 1525 3103 1245 2825 
Q 966 2547 928 2134 
L 2928 2134 
z
" transform="scale(0.015625)"/>
       <path id="Verdana-5f" d="M 4081 -938 
L -13 -938 
L -13 -563 
L 4081 -563 
L 4081 -938 
z
" transform="scale(0.015625)"/>
       <path id="Verdana-6f" d="M 3553 1744 
Q 3553 891 3115 397 
Q 2678 -97 1944 -97 
Q 1203 -97 767 397 
Q 331 891 331 1744 
Q 331 2597 767 3092 
Q 1203 3588 1944 3588 
Q 2678 3588 3115 3092 
Q 3553 2597 3553 1744 
z
M 2947 1744 
Q 2947 2422 2681 2751 
Q 2416 3081 1944 3081 
Q 1466 3081 1202 2751 
Q 938 2422 938 1744 
Q 938 1088 1203 748 
Q 1469 409 1944 409 
Q 2413 409 2680 745 
Q 2947 1081 2947 1744 
z
" transform="scale(0.015625)"/>
       <path id="Verdana-72" d="M 2756 2850 
L 2725 2850 
Q 2594 2881 2470 2895 
Q 2347 2909 2178 2909 
Q 1906 2909 1653 2789 
Q 1400 2669 1166 2478 
L 1166 0 
L 578 0 
L 578 3491 
L 1166 3491 
L 1166 2975 
Q 1516 3256 1783 3373 
Q 2050 3491 2328 3491 
Q 2481 3491 2550 3483 
Q 2619 3475 2756 3453 
L 2756 2850 
z
" transform="scale(0.015625)"/>
       <path id="Verdana-2b" d="M 4581 1788 
L 2878 1788 
L 2878 84 
L 2359 84 
L 2359 1788 
L 656 1788 
L 656 2288 
L 2359 2288 
L 2359 3991 
L 2878 3991 
L 2878 2288 
L 4581 2288 
L 4581 1788 
z
" transform="scale(0.015625)"/>
       <path id="Verdana-78" d="M 3600 0 
L 2859 0 
L 1869 1341 
L 872 0 
L 188 0 
L 1550 1741 
L 200 3491 
L 941 3491 
L 1925 2172 
L 2913 3491 
L 3600 3491 
L 2228 1772 
L 3600 0 
z
" transform="scale(0.015625)"/>
      </defs>
      <use xlink:href="#Verdana-73"/>
      <use xlink:href="#Verdana-74" transform="translate(52.099609 0)"/>
      <use xlink:href="#Verdana-64" transform="translate(91.503906 0)"/>
      <use xlink:href="#Verdana-3a" transform="translate(153.808594 0)"/>
      <use xlink:href="#Verdana-3a" transform="translate(199.21875 0)"/>
      <use xlink:href="#Verdana-73" transform="translate(244.628906 0)"/>
      <use xlink:href="#Verdana-74" transform="translate(296.728516 0)"/>
      <use xlink:href="#Verdana-61" transform="translate(336.132812 0)"/>
      <use xlink:href="#Verdana-62" transform="translate(396.191406 0)"/>
      <use xlink:href="#Verdana-6c" transform="translate(458.496094 0)"/>
      <use xlink:href="#Verdana-65" transform="translate(485.9375 0)"/>
      <use xlink:href="#Verdana-5f" transform="translate(545.507812 0)"/>
      <use xlink:href="#Verdana-73" transform="translate(609.082031 0)"/>
      <use xlink:href="#Verdana-6f" transform="translate(661.181641 0)"/>
      <use xlink:href="#Verdana-72" transform="translate(721.875 0)"/>
      <use xlink:href="#Verdana-74" transform="translate(764.550781 0)"/>
      <use xlink:href="#Verdana-2b" transform="translate(803.955078 0)"/>
      <use xlink:href="#Verdana-72" transform="translate(885.791016 0)"/>
      <use xlink:href="#Verdana-61" transform="translate(926.716797 0)"/>
      <use xlink:href="#Verdana-64" transform="translate(986.775391 0)"/>
      <use xlink:href="#Verdana-69" transform="translate(1049.080078 0)"/>
      <use xlink:href="#Verdana-78" transform="translate(1076.521484 0)"/>
     </g>
    </g>
    <g id="line2d_73">
     <path d="M 64.193867 55.309375 
L 74.193867 55.309375 
L 84.193867 55.309375 
" style="fill: none; stroke: #ff7f0e; stroke-width: 1.5; stroke-linecap: square"/>
    </g>
    <g id="text_12">
     <!-- std::stable_sort -->
     <g transform="translate(92.193867 58.809375) scale(0.1 -0.1)">
      <use xlink:href="#Verdana-73"/>
      <use xlink:href="#Verdana-74" transform="translate(52.099609 0)"/>
      <use xlink:href="#Verdana-64" transform="translate(91.503906 0)"/>
      <use xlink:href="#Verdana-3a" transform="translate(153.808594 0)"/>
      <use xlink:href="#Verdana-3a" transform="translate(199.21875 0)"/>
      <use xlink:href="#Verdana-73" transform="translate(244.628906 0)"/>
      <use xlink:href="#Verdana-74" transform="translate(296.728516 0)"/>
      <use xlink:href="#Verdana-61" transform="translate(336.132812 0)"/>
      <use xlink:href="#Verdana-62" transform="translate(396.191406 0)"/>
      <use xlink:href="#Verdana-6c" transform="translate(458.496094 0)"/>
      <use xlink:href="#Verdana-65" transform="translate(485.9375 0)"/>
      <use xlink:href="#Verdana-5f" transform="translate(545.507812 0)"/>
      <use xlink:href="#Verdana-73" transform="translate(609.082031 0)"/>
      <use xlink:href="#Verdana-6f" transform="translate(661.181641 0)"/>
      <use xlink:href="#Verdana-72" transform="translate(721.875 0)"/>
      <use xlink:href="#Verdana-74" transform="translate(764.550781 0)"/>
     </g>
    </g>
    <g id="line2d_74">
     <path d="M 64.193867 69.920312 
L 74.193867 69.920312 
L 84.193867 69.920312 
" style="fill: none; stroke: #2ca02c; stroke-width: 1.5; stroke-linecap: square"/>
    </g>
    <g id="text_13">
     <!-- std::sort -->
     <g transform="translate(92.193867 73.420312) scale(0.1 -0.1)">
      <use xlink:href="#Verdana-73"/>
      <use xlink:href="#Verdana-74" transform="translate(52.099609 0)"/>
      <use xlink:href="#Verdana-64" transform="translate(91.503906 0)"/>
      <use xlink:href="#Verdana-3a" transform="translate(153.808594 0)"/>
      <use xlink:href="#Verdana-3a" transform="translate(199.21875 0)"/>
      <use xlink:href="#Verdana-73" transform="translate(244.628906 0)"/>
      <use xlink:href="#Verdana-6f" transform="translate(296.728516 0)"/>
      <use xlink:href="#Verdana-72" transform="translate(357.421875 0)"/>
      <use xlink:href="#Verdana-74" transform="translate(400.097656 0)"/>
     </g>
    </g>
   </g>
  </g>
 </g>
 <defs>
  <clipPath id="p3f2328dbcd">
   <rect x="55.193867" y="27.6" width="394.806133" height="275.356"/>
  </clipPath>
 </defs>
</svg>
