<?xml version="1.0" encoding="utf-8" standalone="no"?>
<!DOCTYPE svg PUBLIC "-//W3C//DTD SVG 1.1//EN"
  "http://www.w3.org/Graphics/SVG/1.1/DTD/svg11.dtd">
<svg xmlns:xlink="http://www.w3.org/1999/xlink" width="460.8pt" height="345.6pt" viewBox="0 0 460.8 345.6" xmlns="http://www.w3.org/2000/svg" version="1.1">
 <metadata>
  <rdf:RDF xmlns:dc="http://purl.org/dc/elements/1.1/" xmlns:cc="http://creativecommons.org/ns#" xmlns:rdf="http://www.w3.org/1999/02/22-rdf-syntax-ns#">
   <cc:Work>
    <dc:type rdf:resource="http://purl.org/dc/dcmitype/StillImage"/>
    <dc:date>2026-01-02T02:02:42.633629</dc:date>
    <dc:format>image/svg+xml</dc:format>
    <dc:creator>
     <cc:Agent>
      <dc:title>Matplotlib v3.10.1, https://matplotlib.org/</dc:title>
     </cc:Agent>
    </dc:creator>
   </cc:Work>
  </rdf:RDF>
 </metadata>
 <defs>
  <style type="text/css">*{stroke-linejoin: round; stroke-linecap: butt}</style>
 </defs>
 <g id="figure_1">
  <g id="patch_1">
   <path d="M 0 345.6 
L 460.8 345.6 
L 460.8 0 
L 0 0 
z
" style="fill: #ffffff"/>
  </g>
  <g id="axes_1">
   <g id="patch_2">
    <path d="M 55.193867 302.956 
L 450 302.956 
L 450 27.6 
L 55.193867 27.6 
z
" style="fill: #ffffff"/>
   </g>
   <g id="matplotlib.axis_1">
    <g id="xtick_1">
     <g id="line2d_1">
      <path d="M 73.1396 302.956 
L 73.1396 27.6 
" clip-path="url(#p6295384115)" style="fill: none; stroke: #b0b0b0; stroke-width: 0.8; stroke-linecap: square"/>
     </g>
     <g id="line2d_2">
      <defs>
       <path id="me45cba0173" d="M 0 0 
L 0 3.5 
" style="stroke: #000000; stroke-width: 0.8"/>
      </defs>
      <g>
       <use xlink:href="#me45cba0173" x="73.1396" y="302.956" style="stroke: #000000; stroke-width: 0.8"/>
      </g>
     </g>
     <g id="text_1">
      <!-- $\mathdefault{10^{1}}$ -->
      <g transform="translate(64.3396 317.554437) scale(0.1 -0.1)">
       <defs>
        <path id="Verdana-31" d="M 3388 0 
L 869 0 
L 869 475 
L 1838 475 
L 1838 3594 
L 869 3594 
L 869 4019 
Q 1066 4019 1291 4051 
Q 1516 4084 1631 4147 
Q 1775 4225 1858 4345 
Q 1941 4466 1953 4669 
L 2438 4669 
L 2438 475 
L 3388 475 
L 3388 0 
z
" transform="scale(0.015625)"/>
        <path id="Verdana-30" d="M 3647 2328 
Q 3647 1075 3255 489 
Q 2863 -97 2038 -97 
Q 1200 -97 814 497 
Q 428 1091 428 2322 
Q 428 3563 818 4155 
Q 1209 4747 2038 4747 
Q 2875 4747 3261 4145 
Q 3647 3544 3647 2328 
z
M 2825 909 
Q 2934 1163 2973 1505 
Q 3013 1847 3013 2328 
Q 3013 2803 2973 3153 
Q 2934 3503 2822 3747 
Q 2713 3988 2523 4109 
Q 2334 4231 2038 4231 
Q 1744 4231 1551 4109 
Q 1359 3988 1247 3741 
Q 1141 3509 1102 3137 
Q 1063 2766 1063 2322 
Q 1063 1834 1097 1506 
Q 1131 1178 1244 919 
Q 1347 675 1536 547 
Q 1725 419 2038 419 
Q 2331 419 2525 541 
Q 2719 663 2825 909 
z
" transform="scale(0.015625)"/>
       </defs>
       <use xlink:href="#Verdana-31" transform="translate(0 0.75)"/>
       <use xlink:href="#Verdana-30" transform="translate(63.574219 0.75)"/>
       <use xlink:href="#Verdana-31" transform="translate(128.103008 38.932812) scale(0.7)"/>
      </g>
     </g>
    </g>
    <g id="xtick_2">
     <g id="line2d_3">
      <path d="M 144.922533 302.956 
L 144.922533 27.6 
" clip-path="url(#p6295384115)" style="fill: none; stroke: #b0b0b0; stroke-width: 0.8; stroke-linecap: square"/>
     </g>
     <g id="line2d_4">
      <g>
       <use xlink:href="#me45cba0173" x="144.922533" y="302.956" style="stroke: #000000; stroke-width: 0.8"/>
      </g>
     </g>
     <g id="text_2">
      <!-- $\mathdefault{10^{2}}$ -->
      <g transform="translate(136.122533 317.554437) scale(0.1 -0.1)">
       <defs>
        <path id="Verdana-32" d="M 3653 0 
L 503 0 
L 503 653 
Q 831 934 1161 1215 
Q 1491 1497 1775 1775 
Q 2375 2356 2597 2698 
Q 2819 3041 2819 3438 
Q 2819 3800 2580 4004 
Q 2341 4209 1913 4209 
Q 1628 4209 1297 4109 
Q 966 4009 650 3803 
L 619 3803 
L 619 4459 
Q 841 4569 1211 4659 
Q 1581 4750 1928 4750 
Q 2644 4750 3050 4404 
Q 3456 4059 3456 3469 
Q 3456 3203 3389 2973 
Q 3322 2744 3191 2538 
Q 3069 2344 2905 2156 
Q 2741 1969 2506 1741 
Q 2172 1413 1815 1105 
Q 1459 797 1150 534 
L 3653 534 
L 3653 0 
z
" transform="scale(0.015625)"/>
       </defs>
       <use xlink:href="#Verdana-31" transform="translate(0 0.864063)"/>
       <use xlink:href="#Verdana-30" transform="translate(63.574219 0.864063)"/>
       <use xlink:href="#Verdana-32" transform="translate(128.103008 39.046875) scale(0.7)"/>
      </g>
     </g>
    </g>
    <g id="xtick_3">
     <g id="line2d_5">
      <path d="M 216.705467 302.956 
L 216.705467 27.6 
" clip-path="url(#p6295384115)" style="fill: none; stroke: #b0b0b0; stroke-width: 0.8; stroke-linecap: square"/>
     </g>
     <g id="line2d_6">
      <g>
       <use xlink:href="#me45cba0173" x="216.705467" y="302.956" style="stroke: #000000; stroke-width: 0.8"/>
      </g>
     </g>
     <g id="text_3">
      <!-- $\mathdefault{10^{3}}$ -->
      <g transform="translate(207.905467 317.554437) scale(0.1 -0.1)">
       <defs>
        <path id="Verdana-33" d="M 3244 2241 
Q 3394 2106 3491 1903 
Q 3588 1700 3588 1378 
Q 3588 1059 3472 793 
Q 3356 528 3147 331 
Q 2913 113 2595 8 
Q 2278 -97 1900 -97 
Q 1513 -97 1138 -4 
Q 763 88 522 197 
L 522 850 
L 569 850 
Q 834 675 1193 559 
Q 1553 444 1888 444 
Q 2084 444 2306 509 
Q 2528 575 2666 703 
Q 2809 841 2879 1006 
Q 2950 1172 2950 1425 
Q 2950 1675 2870 1839 
Q 2791 2003 2650 2097 
Q 2509 2194 2309 2230 
Q 2109 2266 1878 2266 
L 1597 2266 
L 1597 2784 
L 1816 2784 
Q 2291 2784 2573 2982 
Q 2856 3181 2856 3563 
Q 2856 3731 2784 3857 
Q 2713 3984 2584 4066 
Q 2450 4147 2297 4178 
Q 2144 4209 1950 4209 
Q 1653 4209 1318 4103 
Q 984 3997 688 3803 
L 656 3803 
L 656 4456 
Q 878 4566 1248 4658 
Q 1619 4750 1966 4750 
Q 2306 4750 2565 4687 
Q 2825 4625 3034 4488 
Q 3259 4338 3375 4125 
Q 3491 3913 3491 3628 
Q 3491 3241 3217 2952 
Q 2944 2663 2572 2588 
L 2572 2544 
Q 2722 2519 2915 2439 
Q 3109 2359 3244 2241 
z
" transform="scale(0.015625)"/>
       </defs>
       <use xlink:href="#Verdana-31" transform="translate(0 0.864063)"/>
       <use xlink:href="#Verdana-30" transform="translate(63.574219 0.864063)"/>
       <use xlink:href="#Verdana-33" transform="translate(128.103008 39.046875) scale(0.7)"/>
      </g>
     </g>
    </g>
    <g id="xtick_4">
     <g id="line2d_7">
      <path d="M 288.4884 302.956 
L 288.4884 27.6 
" clip-path="url(#p6295384115)" style="fill: none; stroke: #b0b0b0; stroke-width: 0.8; stroke-linecap: square"/>
     </g>
     <g id="line2d_8">
      <g>
       <use xlink:href="#me45cba0173" x="288.4884" y="302.956" style="stroke: #000000; stroke-width: 0.8"/>
      </g>
     </g>
     <g id="text_4">
      <!-- $\mathdefault{10^{4}}$ -->
      <g transform="translate(279.6884 317.554437) scale(0.1 -0.1)">
       <defs>
        <path id="Verdana-34" d="M 3759 1309 
L 3069 1309 
L 3069 0 
L 2469 0 
L 2469 1309 
L 241 1309 
L 241 2028 
L 2494 4653 
L 3069 4653 
L 3069 1809 
L 3759 1809 
L 3759 1309 
z
M 2469 1809 
L 2469 3909 
L 666 1809 
L 2469 1809 
z
" transform="scale(0.015625)"/>
       </defs>
       <use xlink:href="#Verdana-31" transform="translate(0 0.925)"/>
       <use xlink:href="#Verdana-30" transform="translate(63.574219 0.925)"/>
       <use xlink:href="#Verdana-34" transform="translate(128.103008 39.107813) scale(0.7)"/>
      </g>
     </g>
    </g>
    <g id="xtick_5">
     <g id="line2d_9">
      <path d="M 360.271333 302.956 
L 360.271333 27.6 
" clip-path="url(#p6295384115)" style="fill: none; stroke: #b0b0b0; stroke-width: 0.8; stroke-linecap: square"/>
     </g>
     <g id="line2d_10">
      <g>
       <use xlink:href="#me45cba0173" x="360.271333" y="302.956" style="stroke: #000000; stroke-width: 0.8"/>
      </g>
     </g>
     <g id="text_5">
      <!-- $\mathdefault{10^{5}}$ -->
      <g transform="translate(351.471333 317.554437) scale(0.1 -0.1)">
       <defs>
        <path id="Verdana-35" d="M 3616 1478 
Q 3616 1153 3497 856 
Q 3378 559 3172 356 
Q 2947 138 2636 20 
Q 2325 -97 1916 -97 
Q 1534 -97 1181 -17 
Q 828 63 584 175 
L 584 834 
L 628 834 
Q 884 672 1228 558 
Q 1572 444 1903 444 
Q 2125 444 2333 506 
Q 2541 569 2703 725 
Q 2841 859 2911 1046 
Q 2981 1234 2981 1481 
Q 2981 1722 2898 1887 
Q 2816 2053 2669 2153 
Q 2506 2272 2273 2320 
Q 2041 2369 1753 2369 
Q 1478 2369 1223 2331 
Q 969 2294 784 2256 
L 784 4653 
L 3584 4653 
L 3584 4106 
L 1388 4106 
L 1388 2869 
Q 1522 2881 1662 2887 
Q 1803 2894 1906 2894 
Q 2284 2894 2568 2830 
Q 2853 2766 3091 2603 
Q 3341 2431 3478 2159 
Q 3616 1888 3616 1478 
z
" transform="scale(0.015625)"/>
       </defs>
       <use xlink:href="#Verdana-31" transform="translate(0 0.925)"/>
       <use xlink:href="#Verdana-30" transform="translate(63.574219 0.925)"/>
       <use xlink:href="#Verdana-35" transform="translate(128.103008 39.107813) scale(0.7)"/>
      </g>
     </g>
    </g>
    <g id="xtick_6">
     <g id="line2d_11">
      <path d="M 432.054267 302.956 
L 432.054267 27.6 
" clip-path="url(#p6295384115)" style="fill: none; stroke: #b0b0b0; stroke-width: 0.8; stroke-linecap: square"/>
     </g>
     <g id="line2d_12">
      <g>
       <use xlink:href="#me45cba0173" x="432.054267" y="302.956" style="stroke: #000000; stroke-width: 0.8"/>
      </g>
     </g>
     <g id="text_6">
      <!-- $\mathdefault{10^{6}}$ -->
      <g transform="translate(423.254267 317.554437) scale(0.1 -0.1)">
       <defs>
        <path id="Verdana-36" d="M 3722 1509 
Q 3722 800 3255 351 
Q 2788 -97 2109 -97 
Q 1766 -97 1484 9 
Q 1203 116 988 325 
Q 719 584 573 1012 
Q 428 1441 428 2044 
Q 428 2663 561 3141 
Q 694 3619 984 3991 
Q 1259 4344 1693 4542 
Q 2128 4741 2706 4741 
Q 2891 4741 3016 4725 
Q 3141 4709 3269 4669 
L 3269 4072 
L 3238 4072 
Q 3150 4119 2973 4161 
Q 2797 4203 2613 4203 
Q 1941 4203 1541 3783 
Q 1141 3363 1075 2647 
Q 1338 2806 1592 2889 
Q 1847 2972 2181 2972 
Q 2478 2972 2704 2917 
Q 2931 2863 3169 2697 
Q 3444 2506 3583 2215 
Q 3722 1925 3722 1509 
z
M 3088 1484 
Q 3088 1775 3002 1965 
Q 2916 2156 2719 2297 
Q 2575 2397 2400 2428 
Q 2225 2459 2034 2459 
Q 1769 2459 1541 2396 
Q 1313 2334 1072 2203 
Q 1066 2134 1062 2070 
Q 1059 2006 1059 1909 
Q 1059 1416 1161 1130 
Q 1263 844 1441 678 
Q 1584 541 1751 477 
Q 1919 413 2116 413 
Q 2569 413 2828 689 
Q 3088 966 3088 1484 
z
" transform="scale(0.015625)"/>
       </defs>
       <use xlink:href="#Verdana-31" transform="translate(0 0.9625)"/>
       <use xlink:href="#Verdana-30" transform="translate(63.574219 0.9625)"/>
       <use xlink:href="#Verdana-36" transform="translate(128.103008 39.145313) scale(0.7)"/>
      </g>
     </g>
    </g>
    <g id="xtick_7">
     <g id="line2d_13">
      <defs>
       <path id="ma433b143a2" d="M 0 0 
L 0 2 
" style="stroke: #000000; stroke-width: 0.6"/>
      </defs>
      <g>
       <use xlink:href="#ma433b143a2" x="57.214646" y="302.956" style="stroke: #000000; stroke-width: 0.6"/>
      </g>
     </g>
    </g>
    <g id="xtick_8">
     <g id="line2d_14">
      <g>
       <use xlink:href="#ma433b143a2" x="62.020283" y="302.956" style="stroke: #000000; stroke-width: 0.6"/>
      </g>
     </g>
    </g>
    <g id="xtick_9">
     <g id="line2d_15">
      <g>
       <use xlink:href="#ma433b143a2" x="66.183115" y="302.956" style="stroke: #000000; stroke-width: 0.6"/>
      </g>
     </g>
    </g>
    <g id="xtick_10">
     <g id="line2d_16">
      <g>
       <use xlink:href="#ma433b143a2" x="69.854993" y="302.956" style="stroke: #000000; stroke-width: 0.6"/>
      </g>
     </g>
    </g>
    <g id="xtick_11">
     <g id="line2d_17">
      <g>
       <use xlink:href="#ma433b143a2" x="94.748416" y="302.956" style="stroke: #000000; stroke-width: 0.6"/>
      </g>
     </g>
    </g>
    <g id="xtick_12">
     <g id="line2d_18">
      <g>
       <use xlink:href="#ma433b143a2" x="107.388763" y="302.956" style="stroke: #000000; stroke-width: 0.6"/>
      </g>
     </g>
    </g>
    <g id="xtick_13">
     <g id="line2d_19">
      <g>
       <use xlink:href="#ma433b143a2" x="116.357232" y="302.956" style="stroke: #000000; stroke-width: 0.6"/>
      </g>
     </g>
    </g>
    <g id="xtick_14">
     <g id="line2d_20">
      <g>
       <use xlink:href="#ma433b143a2" x="123.313717" y="302.956" style="stroke: #000000; stroke-width: 0.6"/>
      </g>
     </g>
    </g>
    <g id="xtick_15">
     <g id="line2d_21">
      <g>
       <use xlink:href="#ma433b143a2" x="128.997579" y="302.956" style="stroke: #000000; stroke-width: 0.6"/>
      </g>
     </g>
    </g>
    <g id="xtick_16">
     <g id="line2d_22">
      <g>
       <use xlink:href="#ma433b143a2" x="133.803216" y="302.956" style="stroke: #000000; stroke-width: 0.6"/>
      </g>
     </g>
    </g>
    <g id="xtick_17">
     <g id="line2d_23">
      <g>
       <use xlink:href="#ma433b143a2" x="137.966048" y="302.956" style="stroke: #000000; stroke-width: 0.6"/>
      </g>
     </g>
    </g>
    <g id="xtick_18">
     <g id="line2d_24">
      <g>
       <use xlink:href="#ma433b143a2" x="141.637926" y="302.956" style="stroke: #000000; stroke-width: 0.6"/>
      </g>
     </g>
    </g>
    <g id="xtick_19">
     <g id="line2d_25">
      <g>
       <use xlink:href="#ma433b143a2" x="166.531349" y="302.956" style="stroke: #000000; stroke-width: 0.6"/>
      </g>
     </g>
    </g>
    <g id="xtick_20">
     <g id="line2d_26">
      <g>
       <use xlink:href="#ma433b143a2" x="179.171696" y="302.956" style="stroke: #000000; stroke-width: 0.6"/>
      </g>
     </g>
    </g>
    <g id="xtick_21">
     <g id="line2d_27">
      <g>
       <use xlink:href="#ma433b143a2" x="188.140165" y="302.956" style="stroke: #000000; stroke-width: 0.6"/>
      </g>
     </g>
    </g>
    <g id="xtick_22">
     <g id="line2d_28">
      <g>
       <use xlink:href="#ma433b143a2" x="195.09665" y="302.956" style="stroke: #000000; stroke-width: 0.6"/>
      </g>
     </g>
    </g>
    <g id="xtick_23">
     <g id="line2d_29">
      <g>
       <use xlink:href="#ma433b143a2" x="200.780513" y="302.956" style="stroke: #000000; stroke-width: 0.6"/>
      </g>
     </g>
    </g>
    <g id="xtick_24">
     <g id="line2d_30">
      <g>
       <use xlink:href="#ma433b143a2" x="205.58615" y="302.956" style="stroke: #000000; stroke-width: 0.6"/>
      </g>
     </g>
    </g>
    <g id="xtick_25">
     <g id="line2d_31">
      <g>
       <use xlink:href="#ma433b143a2" x="209.748982" y="302.956" style="stroke: #000000; stroke-width: 0.6"/>
      </g>
     </g>
    </g>
    <g id="xtick_26">
     <g id="line2d_32">
      <g>
       <use xlink:href="#ma433b143a2" x="213.42086" y="302.956" style="stroke: #000000; stroke-width: 0.6"/>
      </g>
     </g>
    </g>
    <g id="xtick_27">
     <g id="line2d_33">
      <g>
       <use xlink:href="#ma433b143a2" x="238.314283" y="302.956" style="stroke: #000000; stroke-width: 0.6"/>
      </g>
     </g>
    </g>
    <g id="xtick_28">
     <g id="line2d_34">
      <g>
       <use xlink:href="#ma433b143a2" x="250.95463" y="302.956" style="stroke: #000000; stroke-width: 0.6"/>
      </g>
     </g>
    </g>
    <g id="xtick_29">
     <g id="line2d_35">
      <g>
       <use xlink:href="#ma433b143a2" x="259.923099" y="302.956" style="stroke: #000000; stroke-width: 0.6"/>
      </g>
     </g>
    </g>
    <g id="xtick_30">
     <g id="line2d_36">
      <g>
       <use xlink:href="#ma433b143a2" x="266.879584" y="302.956" style="stroke: #000000; stroke-width: 0.6"/>
      </g>
     </g>
    </g>
    <g id="xtick_31">
     <g id="line2d_37">
      <g>
       <use xlink:href="#ma433b143a2" x="272.563446" y="302.956" style="stroke: #000000; stroke-width: 0.6"/>
      </g>
     </g>
    </g>
    <g id="xtick_32">
     <g id="line2d_38">
      <g>
       <use xlink:href="#ma433b143a2" x="277.369083" y="302.956" style="stroke: #000000; stroke-width: 0.6"/>
      </g>
     </g>
    </g>
    <g id="xtick_33">
     <g id="line2d_39">
      <g>
       <use xlink:href="#ma433b143a2" x="281.531915" y="302.956" style="stroke: #000000; stroke-width: 0.6"/>
      </g>
     </g>
    </g>
    <g id="xtick_34">
     <g id="line2d_40">
      <g>
       <use xlink:href="#ma433b143a2" x="285.203793" y="302.956" style="stroke: #000000; stroke-width: 0.6"/>
      </g>
     </g>
    </g>
    <g id="xtick_35">
     <g id="line2d_41">
      <g>
       <use xlink:href="#ma433b143a2" x="310.097216" y="302.956" style="stroke: #000000; stroke-width: 0.6"/>
      </g>
     </g>
    </g>
    <g id="xtick_36">
     <g id="line2d_42">
      <g>
       <use xlink:href="#ma433b143a2" x="322.737563" y="302.956" style="stroke: #000000; stroke-width: 0.6"/>
      </g>
     </g>
    </g>
    <g id="xtick_37">
     <g id="line2d_43">
      <g>
       <use xlink:href="#ma433b143a2" x="331.706032" y="302.956" style="stroke: #000000; stroke-width: 0.6"/>
      </g>
     </g>
    </g>
    <g id="xtick_38">
     <g id="line2d_44">
      <g>
       <use xlink:href="#ma433b143a2" x="338.662517" y="302.956" style="stroke: #000000; stroke-width: 0.6"/>
      </g>
     </g>
    </g>
    <g id="xtick_39">
     <g id="line2d_45">
      <g>
       <use xlink:href="#ma433b143a2" x="344.346379" y="302.956" style="stroke: #000000; stroke-width: 0.6"/>
      </g>
     </g>
    </g>
    <g id="xtick_40">
     <g id="line2d_46">
      <g>
       <use xlink:href="#ma433b143a2" x="349.152016" y="302.956" style="stroke: #000000; stroke-width: 0.6"/>
      </g>
     </g>
    </g>
    <g id="xtick_41">
     <g id="line2d_47">
      <g>
       <use xlink:href="#ma433b143a2" x="353.314848" y="302.956" style="stroke: #000000; stroke-width: 0.6"/>
      </g>
     </g>
    </g>
    <g id="xtick_42">
     <g id="line2d_48">
      <g>
       <use xlink:href="#ma433b143a2" x="356.986726" y="302.956" style="stroke: #000000; stroke-width: 0.6"/>
      </g>
     </g>
    </g>
    <g id="xtick_43">
     <g id="line2d_49">
      <g>
       <use xlink:href="#ma433b143a2" x="381.880149" y="302.956" style="stroke: #000000; stroke-width: 0.6"/>
      </g>
     </g>
    </g>
    <g id="xtick_44">
     <g id="line2d_50">
      <g>
       <use xlink:href="#ma433b143a2" x="394.520497" y="302.956" style="stroke: #000000; stroke-width: 0.6"/>
      </g>
     </g>
    </g>
    <g id="xtick_45">
     <g id="line2d_51">
      <g>
       <use xlink:href="#ma433b143a2" x="403.488966" y="302.956" style="stroke: #000000; stroke-width: 0.6"/>
      </g>
     </g>
    </g>
    <g id="xtick_46">
     <g id="line2d_52">
      <g>
       <use xlink:href="#ma433b143a2" x="410.445451" y="302.956" style="stroke: #000000; stroke-width: 0.6"/>
      </g>
     </g>
    </g>
    <g id="xtick_47">
     <g id="line2d_53">
      <g>
       <use xlink:href="#ma433b143a2" x="416.129313" y="302.956" style="stroke: #000000; stroke-width: 0.6"/>
      </g>
     </g>
    </g>
    <g id="xtick_48">
     <g id="line2d_54">
      <g>
       <use xlink:href="#ma433b143a2" x="420.93495" y="302.956" style="stroke: #000000; stroke-width: 0.6"/>
      </g>
     </g>
    </g>
    <g id="xtick_49">
     <g id="line2d_55">
      <g>
       <use xlink:href="#ma433b143a2" x="425.097782" y="302.956" style="stroke: #000000; stroke-width: 0.6"/>
      </g>
     </g>
    </g>
    <g id="xtick_50">
     <g id="line2d_56">
      <g>
       <use xlink:href="#ma433b143a2" x="428.76966" y="302.956" style="stroke: #000000; stroke-width: 0.6"/>
      </g>
     </g>
    </g>
    <g id="text_7">
     <!-- Количество элементов в массиве, шт -->
     <g transform="translate(156.014902 331.165375) scale(0.1 -0.1)">
      <defs>
       <path id="Verdana-41a" d="M 4366 0 
L 3572 0 
L 1681 2122 
L 1259 2122 
L 1259 0 
L 641 0 
L 641 4653 
L 1259 4653 
L 1259 2566 
Q 1419 2569 1559 2597 
Q 1700 2625 1825 2703 
Q 1950 2775 2072 2908 
Q 2194 3041 2288 3234 
Q 2328 3319 2383 3447 
Q 2438 3575 2494 3716 
Q 2709 4234 2998 4443 
Q 3288 4653 3850 4653 
L 4097 4653 
L 4097 4100 
L 3838 4100 
Q 3622 4100 3500 4061 
Q 3378 4022 3281 3931 
Q 3191 3850 3123 3712 
Q 3056 3575 2984 3391 
Q 2822 2978 2655 2784 
Q 2488 2591 2206 2447 
L 4366 0 
z
" transform="scale(0.015625)"/>
       <path id="Verdana-43e" d="M 3553 1744 
Q 3553 891 3115 397 
Q 2678 -97 1944 -97 
Q 1203 -97 767 397 
Q 331 891 331 1744 
Q 331 2597 767 3092 
Q 1203 3588 1944 3588 
Q 2678 3588 3115 3092 
Q 3553 2597 3553 1744 
z
M 2947 1744 
Q 2947 2422 2681 2751 
Q 2416 3081 1944 3081 
Q 1466 3081 1202 2751 
Q 938 2422 938 1744 
Q 938 1088 1203 748 
Q 1469 409 1944 409 
Q 2413 409 2680 745 
Q 2947 1081 2947 1744 
z
" transform="scale(0.015625)"/>
       <path id="Verdana-43b" d="M 3394 0 
L 2806 0 
L 2806 2997 
L 1503 2997 
Q 1494 2738 1484 2497 
Q 1475 2256 1466 2063 
Q 1444 1541 1394 1230 
Q 1344 919 1263 713 
Q 1188 519 1095 398 
Q 1003 278 897 181 
Q 791 88 661 41 
Q 531 -6 378 -6 
Q 325 -6 223 -3 
Q 122 0 91 0 
L 91 513 
L 122 513 
Q 147 513 194 509 
Q 241 506 272 506 
Q 347 506 426 528 
Q 506 550 563 609 
Q 722 766 819 1137 
Q 916 1509 947 2213 
Q 959 2469 970 2820 
Q 981 3172 991 3491 
L 3394 3491 
L 3394 0 
z
" transform="scale(0.015625)"/>
       <path id="Verdana-438" d="M 3519 0 
L 2938 0 
L 2938 2622 
L 1109 0 
L 578 0 
L 578 3491 
L 1159 3491 
L 1159 906 
L 2969 3491 
L 3519 3491 
L 3519 0 
z
" transform="scale(0.015625)"/>
       <path id="Verdana-447" d="M 3297 0 
L 2709 0 
L 2709 1341 
Q 2425 1253 2165 1200 
Q 1906 1147 1600 1147 
Q 1038 1147 741 1423 
Q 444 1700 444 2222 
L 444 3491 
L 1031 3491 
L 1031 2522 
Q 1031 2322 1056 2164 
Q 1081 2006 1163 1891 
Q 1244 1778 1391 1718 
Q 1538 1659 1800 1659 
Q 2016 1659 2269 1701 
Q 2522 1744 2709 1800 
L 2709 3491 
L 3297 3491 
L 3297 0 
z
" transform="scale(0.015625)"/>
       <path id="Verdana-435" d="M 3500 1684 
L 928 1684 
Q 928 1363 1025 1123 
Q 1122 884 1291 731 
Q 1453 581 1676 506 
Q 1900 431 2169 431 
Q 2525 431 2886 573 
Q 3247 716 3400 853 
L 3431 853 
L 3431 213 
Q 3134 88 2825 3 
Q 2516 -81 2175 -81 
Q 1306 -81 818 389 
Q 331 859 331 1725 
Q 331 2581 798 3084 
Q 1266 3588 2028 3588 
Q 2734 3588 3117 3175 
Q 3500 2763 3500 2003 
L 3500 1684 
z
M 2928 2134 
Q 2925 2597 2695 2850 
Q 2466 3103 1997 3103 
Q 1525 3103 1245 2825 
Q 966 2547 928 2134 
L 2928 2134 
z
" transform="scale(0.015625)"/>
       <path id="Verdana-441" d="M 3191 219 
Q 2831 50 2573 -14 
Q 2316 -78 2059 -78 
Q 1678 -78 1359 33 
Q 1041 144 813 369 
Q 584 594 457 937 
Q 331 1281 331 1741 
Q 331 2575 793 3073 
Q 1256 3572 2059 3572 
Q 2363 3572 2655 3487 
Q 2947 3403 3191 3281 
L 3191 2628 
L 3156 2628 
Q 2866 2850 2583 2956 
Q 2300 3063 2034 3063 
Q 1513 3063 1227 2713 
Q 941 2363 941 1741 
Q 941 1119 1225 775 
Q 1509 431 2034 431 
Q 2219 431 2401 478 
Q 2584 525 2734 600 
Q 2853 659 2979 742 
Q 3106 825 3156 866 
L 3191 866 
L 3191 219 
z
" transform="scale(0.015625)"/>
       <path id="Verdana-442" d="M 3144 2975 
L 1881 2975 
L 1881 0 
L 1294 0 
L 1294 2975 
L 31 2975 
L 31 3491 
L 3144 3491 
L 3144 2975 
z
" transform="scale(0.015625)"/>
       <path id="Verdana-432" d="M 3459 1056 
Q 3459 803 3357 606 
Q 3256 409 3078 278 
Q 2878 131 2642 65 
Q 2406 0 2022 0 
L 578 0 
L 578 3491 
L 1928 3491 
Q 2319 3491 2517 3464 
Q 2716 3438 2891 3347 
Q 3088 3244 3180 3078 
Q 3272 2913 3272 2688 
Q 3272 2428 3125 2237 
Q 2978 2047 2747 1941 
L 2747 1909 
Q 3056 1834 3257 1620 
Q 3459 1406 3459 1056 
z
M 2669 2597 
Q 2669 2709 2620 2800 
Q 2572 2891 2472 2941 
Q 2341 3006 2177 3014 
Q 2013 3022 1772 3022 
L 1159 3022 
L 1159 2066 
L 1894 2066 
Q 2125 2066 2236 2083 
Q 2347 2100 2459 2169 
Q 2578 2244 2623 2345 
Q 2669 2447 2669 2597 
z
M 2853 1053 
Q 2853 1225 2797 1333 
Q 2741 1441 2550 1531 
Q 2431 1588 2293 1598 
Q 2156 1609 1913 1609 
L 1159 1609 
L 1159 469 
L 1716 469 
Q 2066 469 2255 492 
Q 2444 516 2581 594 
Q 2719 672 2786 784 
Q 2853 897 2853 1053 
z
" transform="scale(0.015625)"/>
       <path id="Verdana-20" transform="scale(0.015625)"/>
       <path id="Verdana-44d" d="M 2691 3141 
Q 2919 2922 3044 2594 
Q 3169 2266 3169 1816 
Q 3169 947 2683 434 
Q 2197 -78 1384 -78 
Q 1066 -78 767 -3 
Q 469 72 259 156 
L 259 800 
L 300 800 
Q 488 653 797 539 
Q 1106 425 1447 425 
Q 1938 425 2244 725 
Q 2550 1025 2588 1606 
L 825 1606 
L 825 2078 
L 2584 2078 
Q 2522 2572 2225 2820 
Q 1928 3069 1484 3069 
Q 1200 3069 919 2973 
Q 638 2878 366 2669 
L 325 2669 
L 325 3313 
Q 522 3391 825 3481 
Q 1128 3572 1450 3572 
Q 1838 3572 2150 3465 
Q 2463 3359 2691 3141 
z
" transform="scale(0.015625)"/>
       <path id="Verdana-43c" d="M 3878 0 
L 3297 0 
L 3297 2756 
L 2428 963 
L 1991 963 
L 1128 2756 
L 1128 0 
L 578 0 
L 578 3491 
L 1288 3491 
L 2238 1538 
L 3156 3491 
L 3878 3491 
L 3878 0 
z
" transform="scale(0.015625)"/>
       <path id="Verdana-43d" d="M 3500 0 
L 2913 0 
L 2913 1572 
L 1166 1572 
L 1166 0 
L 578 0 
L 578 3491 
L 1166 3491 
L 1166 2078 
L 2913 2078 
L 2913 3491 
L 3500 3491 
L 3500 0 
z
" transform="scale(0.015625)"/>
       <path id="Verdana-430" d="M 3291 0 
L 2706 0 
L 2706 372 
Q 2628 319 2495 223 
Q 2363 128 2238 72 
Q 2091 0 1900 -48 
Q 1709 -97 1453 -97 
Q 981 -97 653 215 
Q 325 528 325 1013 
Q 325 1409 495 1654 
Q 666 1900 981 2041 
Q 1300 2181 1747 2231 
Q 2194 2281 2706 2306 
L 2706 2397 
Q 2706 2597 2636 2728 
Q 2566 2859 2434 2934 
Q 2309 3006 2134 3031 
Q 1959 3056 1769 3056 
Q 1538 3056 1253 2995 
Q 969 2934 666 2819 
L 634 2819 
L 634 3416 
Q 806 3463 1131 3519 
Q 1456 3575 1772 3575 
Q 2141 3575 2414 3514 
Q 2688 3453 2888 3306 
Q 3084 3163 3187 2934 
Q 3291 2706 3291 2369 
L 3291 0 
z
M 2706 859 
L 2706 1831 
Q 2438 1816 2073 1784 
Q 1709 1753 1497 1694 
Q 1244 1622 1087 1470 
Q 931 1319 931 1053 
Q 931 753 1112 601 
Q 1294 450 1666 450 
Q 1975 450 2231 570 
Q 2488 691 2706 859 
z
" transform="scale(0.015625)"/>
       <path id="Verdana-2c" d="M 1797 891 
L 916 -1156 
L 459 -1156 
L 1003 891 
L 1797 891 
z
" transform="scale(0.015625)"/>
       <path id="Verdana-448" d="M 5028 0 
L 578 0 
L 578 3491 
L 1166 3491 
L 1166 506 
L 2509 506 
L 2509 3491 
L 3097 3491 
L 3097 506 
L 4441 506 
L 4441 3491 
L 5028 3491 
L 5028 0 
z
" transform="scale(0.015625)"/>
      </defs>
      <use xlink:href="#Verdana-41a"/>
      <use xlink:href="#Verdana-43e" transform="translate(69.287109 0)"/>
      <use xlink:href="#Verdana-43b" transform="translate(129.980469 0)"/>
      <use xlink:href="#Verdana-438" transform="translate(192.041016 0)"/>
      <use xlink:href="#Verdana-447" transform="translate(256.054688 0)"/>
      <use xlink:href="#Verdana-435" transform="translate(316.601562 0)"/>
      <use xlink:href="#Verdana-441" transform="translate(376.171875 0)"/>
      <use xlink:href="#Verdana-442" transform="translate(429.589844 0)"/>
      <use xlink:href="#Verdana-432" transform="translate(479.199219 0)"/>
      <use xlink:href="#Verdana-43e" transform="translate(538.671875 0)"/>
      <use xlink:href="#Verdana-20" transform="translate(599.365234 0)"/>
      <use xlink:href="#Verdana-44d" transform="translate(634.521484 0)"/>
      <use xlink:href="#Verdana-43b" transform="translate(689.208984 0)"/>
      <use xlink:href="#Verdana-435" transform="translate(751.269531 0)"/>
      <use xlink:href="#Verdana-43c" transform="translate(810.839844 0)"/>
      <use xlink:href="#Verdana-435" transform="translate(880.46875 0)"/>
      <use xlink:href="#Verdana-43d" transform="translate(940.039062 0)"/>
      <use xlink:href="#Verdana-442" transform="translate(1003.759766 0)"/>
      <use xlink:href="#Verdana-43e" transform="translate(1053.369141 0)"/>
      <use xlink:href="#Verdana-432" transform="translate(1114.0625 0)"/>
      <use xlink:href="#Verdana-20" transform="translate(1173.535156 0)"/>
      <use xlink:href="#Verdana-432" transform="translate(1208.691406 0)"/>
      <use xlink:href="#Verdana-20" transform="translate(1268.164062 0)"/>
      <use xlink:href="#Verdana-43c" transform="translate(1303.320312 0)"/>
      <use xlink:href="#Verdana-430" transform="translate(1372.949219 0)"/>
      <use xlink:href="#Verdana-441" transform="translate(1433.007812 0)"/>
      <use xlink:href="#Verdana-441" transform="translate(1486.425781 0)"/>
      <use xlink:href="#Verdana-438" transform="translate(1539.84375 0)"/>
      <use xlink:href="#Verdana-432" transform="translate(1603.857422 0)"/>
      <use xlink:href="#Verdana-435" transform="translate(1663.330078 0)"/>
      <use xlink:href="#Verdana-2c" transform="translate(1722.900391 0)"/>
      <use xlink:href="#Verdana-20" transform="translate(1759.277344 0)"/>
      <use xlink:href="#Verdana-448" transform="translate(1794.433594 0)"/>
      <use xlink:href="#Verdana-442" transform="translate(1882.03125 0)"/>
     </g>
    </g>
   </g>
   <g id="matplotlib.axis_2">
    <g id="ytick_1">
     <g id="line2d_57">
      <path d="M 55.193867 222.412995 
L 450 222.412995 
" clip-path="url(#p6295384115)" style="fill: none; stroke: #b0b0b0; stroke-width: 0.8; stroke-linecap: square"/>
     </g>
     <g id="line2d_58">
      <defs>
       <path id="me206595832" d="M 0 0 
L -3.5 0 
" style="stroke: #000000; stroke-width: 0.8"/>
      </defs>
      <g>
       <use xlink:href="#me206595832" x="55.193867" y="222.412995" style="stroke: #000000; stroke-width: 0.8"/>
      </g>
     </g>
     <g id="text_8">
      <!-- $\mathdefault{10^{-9}}$ -->
      <g transform="translate(24.893867 226.212214) scale(0.1 -0.1)">
       <defs>
        <path id="Verdana-2212" d="M 4550 1788 
L 688 1788 
L 688 2288 
L 4550 2288 
L 4550 1788 
z
" transform="scale(0.015625)"/>
        <path id="Verdana-39" d="M 3647 2606 
Q 3647 1997 3508 1500 
Q 3369 1003 3088 653 
Q 2803 297 2375 103 
Q 1947 -91 1369 -91 
Q 1206 -91 1062 -73 
Q 919 -56 806 -19 
L 806 578 
L 838 578 
Q 928 531 1093 489 
Q 1259 447 1463 447 
Q 2153 447 2545 861 
Q 2938 1275 3000 2003 
Q 2709 1828 2453 1753 
Q 2197 1678 1894 1678 
Q 1606 1678 1373 1734 
Q 1141 1791 906 1953 
Q 631 2144 492 2437 
Q 353 2731 353 3141 
Q 353 3853 822 4300 
Q 1291 4747 1966 4747 
Q 2303 4747 2590 4642 
Q 2878 4538 3094 4328 
Q 3359 4069 3503 3661 
Q 3647 3253 3647 2606 
z
M 3016 2741 
Q 3016 3225 2916 3519 
Q 2816 3813 2641 3975 
Q 2494 4116 2325 4177 
Q 2156 4238 1959 4238 
Q 1509 4238 1248 3956 
Q 988 3675 988 3166 
Q 988 2869 1072 2681 
Q 1156 2494 1356 2353 
Q 1497 2256 1665 2223 
Q 1834 2191 2041 2191 
Q 2284 2191 2534 2256 
Q 2784 2322 3003 2447 
Q 3006 2513 3011 2577 
Q 3016 2641 3016 2741 
z
" transform="scale(0.015625)"/>
       </defs>
       <use xlink:href="#Verdana-31" transform="translate(0 0.896875)"/>
       <use xlink:href="#Verdana-30" transform="translate(63.574219 0.896875)"/>
       <use xlink:href="#Verdana-2212" transform="translate(128.103008 39.079688) scale(0.7)"/>
       <use xlink:href="#Verdana-39" transform="translate(185.388164 39.079688) scale(0.7)"/>
      </g>
     </g>
    </g>
    <g id="ytick_2">
     <g id="line2d_59">
      <path d="M 55.193867 109.23157 
L 450 109.23157 
" clip-path="url(#p6295384115)" style="fill: none; stroke: #b0b0b0; stroke-width: 0.8; stroke-linecap: square"/>
     </g>
     <g id="line2d_60">
      <g>
       <use xlink:href="#me206595832" x="55.193867" y="109.23157" style="stroke: #000000; stroke-width: 0.8"/>
      </g>
     </g>
     <g id="text_9">
      <!-- $\mathdefault{10^{-8}}$ -->
      <g transform="translate(24.893867 113.030788) scale(0.1 -0.1)">
       <defs>
        <path id="Verdana-38" d="M 3688 1297 
Q 3688 694 3217 294 
Q 2747 -106 2034 -106 
Q 1278 -106 829 284 
Q 381 675 381 1284 
Q 381 1672 606 1986 
Q 831 2300 1241 2484 
L 1241 2503 
Q 866 2703 686 2940 
Q 506 3178 506 3534 
Q 506 4059 937 4409 
Q 1369 4759 2034 4759 
Q 2731 4759 3147 4425 
Q 3563 4091 3563 3575 
Q 3563 3259 3366 2954 
Q 3169 2650 2788 2478 
L 2788 2459 
Q 3225 2272 3456 1997 
Q 3688 1722 3688 1297 
z
M 2947 3569 
Q 2947 3903 2689 4101 
Q 2431 4300 2031 4300 
Q 1638 4300 1386 4112 
Q 1134 3925 1134 3606 
Q 1134 3381 1261 3217 
Q 1388 3053 1644 2925 
Q 1759 2869 1976 2778 
Q 2194 2688 2400 2628 
Q 2709 2834 2828 3056 
Q 2947 3278 2947 3569 
z
M 3044 1238 
Q 3044 1525 2917 1698 
Q 2791 1872 2422 2047 
Q 2275 2116 2100 2175 
Q 1925 2234 1634 2341 
Q 1353 2188 1183 1925 
Q 1013 1663 1013 1331 
Q 1013 909 1303 634 
Q 1594 359 2041 359 
Q 2497 359 2770 593 
Q 3044 828 3044 1238 
z
" transform="scale(0.015625)"/>
       </defs>
       <use xlink:href="#Verdana-31" transform="translate(0 0.765625)"/>
       <use xlink:href="#Verdana-30" transform="translate(63.574219 0.765625)"/>
       <use xlink:href="#Verdana-2212" transform="translate(128.103008 38.948437) scale(0.7)"/>
       <use xlink:href="#Verdana-38" transform="translate(185.388164 38.948437) scale(0.7)"/>
      </g>
     </g>
    </g>
    <g id="ytick_3">
     <g id="line2d_61">
      <defs>
       <path id="m004742b8b9" d="M 0 0 
L -2 0 
" style="stroke: #000000; stroke-width: 0.6"/>
      </defs>
      <g>
       <use xlink:href="#m004742b8b9" x="55.193867" y="301.523417" style="stroke: #000000; stroke-width: 0.6"/>
      </g>
     </g>
    </g>
    <g id="ytick_4">
     <g id="line2d_62">
      <g>
       <use xlink:href="#m004742b8b9" x="55.193867" y="281.593157" style="stroke: #000000; stroke-width: 0.6"/>
      </g>
     </g>
    </g>
    <g id="ytick_5">
     <g id="line2d_63">
      <g>
       <use xlink:href="#m004742b8b9" x="55.193867" y="267.452413" style="stroke: #000000; stroke-width: 0.6"/>
      </g>
     </g>
    </g>
    <g id="ytick_6">
     <g id="line2d_64">
      <g>
       <use xlink:href="#m004742b8b9" x="55.193867" y="256.483999" style="stroke: #000000; stroke-width: 0.6"/>
      </g>
     </g>
    </g>
    <g id="ytick_7">
     <g id="line2d_65">
      <g>
       <use xlink:href="#m004742b8b9" x="55.193867" y="247.522153" style="stroke: #000000; stroke-width: 0.6"/>
      </g>
     </g>
    </g>
    <g id="ytick_8">
     <g id="line2d_66">
      <g>
       <use xlink:href="#m004742b8b9" x="55.193867" y="239.94502" style="stroke: #000000; stroke-width: 0.6"/>
      </g>
     </g>
    </g>
    <g id="ytick_9">
     <g id="line2d_67">
      <g>
       <use xlink:href="#m004742b8b9" x="55.193867" y="233.381409" style="stroke: #000000; stroke-width: 0.6"/>
      </g>
     </g>
    </g>
    <g id="ytick_10">
     <g id="line2d_68">
      <g>
       <use xlink:href="#m004742b8b9" x="55.193867" y="227.591893" style="stroke: #000000; stroke-width: 0.6"/>
      </g>
     </g>
    </g>
    <g id="ytick_11">
     <g id="line2d_69">
      <g>
       <use xlink:href="#m004742b8b9" x="55.193867" y="188.341991" style="stroke: #000000; stroke-width: 0.6"/>
      </g>
     </g>
    </g>
    <g id="ytick_12">
     <g id="line2d_70">
      <g>
       <use xlink:href="#m004742b8b9" x="55.193867" y="168.411732" style="stroke: #000000; stroke-width: 0.6"/>
      </g>
     </g>
    </g>
    <g id="ytick_13">
     <g id="line2d_71">
      <g>
       <use xlink:href="#m004742b8b9" x="55.193867" y="154.270987" style="stroke: #000000; stroke-width: 0.6"/>
      </g>
     </g>
    </g>
    <g id="ytick_14">
     <g id="line2d_72">
      <g>
       <use xlink:href="#m004742b8b9" x="55.193867" y="143.302574" style="stroke: #000000; stroke-width: 0.6"/>
      </g>
     </g>
    </g>
    <g id="ytick_15">
     <g id="line2d_73">
      <g>
       <use xlink:href="#m004742b8b9" x="55.193867" y="134.340727" style="stroke: #000000; stroke-width: 0.6"/>
      </g>
     </g>
    </g>
    <g id="ytick_16">
     <g id="line2d_74">
      <g>
       <use xlink:href="#m004742b8b9" x="55.193867" y="126.763594" style="stroke: #000000; stroke-width: 0.6"/>
      </g>
     </g>
    </g>
    <g id="ytick_17">
     <g id="line2d_75">
      <g>
       <use xlink:href="#m004742b8b9" x="55.193867" y="120.199983" style="stroke: #000000; stroke-width: 0.6"/>
      </g>
     </g>
    </g>
    <g id="ytick_18">
     <g id="line2d_76">
      <g>
       <use xlink:href="#m004742b8b9" x="55.193867" y="114.410468" style="stroke: #000000; stroke-width: 0.6"/>
      </g>
     </g>
    </g>
    <g id="ytick_19">
     <g id="line2d_77">
      <g>
       <use xlink:href="#m004742b8b9" x="55.193867" y="75.160566" style="stroke: #000000; stroke-width: 0.6"/>
      </g>
     </g>
    </g>
    <g id="ytick_20">
     <g id="line2d_78">
      <g>
       <use xlink:href="#m004742b8b9" x="55.193867" y="55.230306" style="stroke: #000000; stroke-width: 0.6"/>
      </g>
     </g>
    </g>
    <g id="ytick_21">
     <g id="line2d_79">
      <g>
       <use xlink:href="#m004742b8b9" x="55.193867" y="41.089562" style="stroke: #000000; stroke-width: 0.6"/>
      </g>
     </g>
    </g>
    <g id="ytick_22">
     <g id="line2d_80">
      <g>
       <use xlink:href="#m004742b8b9" x="55.193867" y="30.121148" style="stroke: #000000; stroke-width: 0.6"/>
      </g>
     </g>
    </g>
    <g id="text_10">
     <!-- Среднее время сортировки элемента, с -->
     <g transform="translate(18.881367 267.916281) rotate(-90) scale(0.1 -0.1)">
      <defs>
       <path id="Verdana-421" d="M 4219 338 
Q 4047 263 3908 197 
Q 3769 131 3544 59 
Q 3353 0 3129 -42 
Q 2906 -84 2638 -84 
Q 2131 -84 1717 58 
Q 1303 200 997 503 
Q 697 800 528 1258 
Q 359 1716 359 2322 
Q 359 2897 521 3350 
Q 684 3803 991 4116 
Q 1288 4419 1708 4578 
Q 2128 4738 2641 4738 
Q 3016 4738 3389 4647 
Q 3763 4556 4219 4328 
L 4219 3594 
L 4172 3594 
Q 3788 3916 3409 4062 
Q 3031 4209 2600 4209 
Q 2247 4209 1964 4095 
Q 1681 3981 1459 3741 
Q 1244 3506 1123 3148 
Q 1003 2791 1003 2322 
Q 1003 1831 1136 1478 
Q 1269 1125 1478 903 
Q 1697 672 1989 561 
Q 2281 450 2606 450 
Q 3053 450 3443 603 
Q 3834 756 4175 1063 
L 4219 1063 
L 4219 338 
z
" transform="scale(0.015625)"/>
       <path id="Verdana-440" d="M 3650 1788 
Q 3650 1363 3528 1011 
Q 3406 659 3184 416 
Q 2978 184 2698 57 
Q 2419 -69 2106 -69 
Q 1834 -69 1614 -9 
Q 1394 50 1166 175 
L 1166 -1288 
L 578 -1288 
L 578 3491 
L 1166 3491 
L 1166 3125 
Q 1400 3322 1692 3455 
Q 1984 3588 2316 3588 
Q 2947 3588 3298 3111 
Q 3650 2634 3650 1788 
z
M 3044 1772 
Q 3044 2403 2828 2715 
Q 2613 3028 2166 3028 
Q 1913 3028 1656 2918 
Q 1400 2809 1166 2631 
L 1166 653 
Q 1416 541 1595 500 
Q 1775 459 2003 459 
Q 2494 459 2769 790 
Q 3044 1122 3044 1772 
z
" transform="scale(0.015625)"/>
       <path id="Verdana-434" d="M 3747 -838 
L 3200 -838 
L 3200 9 
L 575 9 
L 575 -838 
L 28 -838 
L 28 500 
L 406 500 
Q 772 1103 951 1892 
Q 1131 2681 1131 3491 
L 3325 3491 
L 3325 500 
L 3747 500 
L 3747 -838 
z
M 2738 500 
L 2738 2997 
L 1684 2997 
Q 1644 2213 1444 1566 
Q 1244 919 984 500 
L 2738 500 
z
" transform="scale(0.015625)"/>
       <path id="Verdana-44f" d="M 3259 0 
L 2672 0 
L 2672 1384 
L 1981 1384 
L 900 0 
L 209 0 
L 1384 1441 
Q 931 1566 722 1823 
Q 513 2081 513 2500 
Q 513 2778 638 2972 
Q 763 3166 953 3288 
Q 1141 3406 1384 3448 
Q 1628 3491 1916 3491 
L 3259 3491 
L 3259 0 
z
M 2672 1847 
L 2672 3022 
L 1931 3022 
Q 1691 3022 1584 3006 
Q 1478 2991 1353 2922 
Q 1231 2853 1173 2736 
Q 1116 2619 1116 2481 
Q 1116 2309 1152 2203 
Q 1188 2097 1300 2003 
Q 1416 1913 1581 1880 
Q 1747 1847 1950 1847 
L 2672 1847 
z
" transform="scale(0.015625)"/>
       <path id="Verdana-43a" d="M 3728 0 
L 2959 0 
L 1509 1600 
L 1191 1600 
L 1191 0 
L 603 0 
L 603 3491 
L 1191 3491 
L 1191 1984 
Q 1481 1984 1659 2089 
Q 1838 2194 1963 2425 
Q 2006 2509 2048 2604 
Q 2091 2700 2131 2788 
Q 2294 3141 2537 3316 
Q 2781 3491 3238 3491 
L 3506 3491 
L 3506 2984 
L 3247 2984 
Q 3000 2984 2861 2879 
Q 2722 2775 2609 2513 
Q 2484 2219 2345 2073 
Q 2206 1928 2050 1853 
L 3728 0 
z
" transform="scale(0.015625)"/>
      </defs>
      <use xlink:href="#Verdana-421"/>
      <use xlink:href="#Verdana-440" transform="translate(69.824219 0)"/>
      <use xlink:href="#Verdana-435" transform="translate(132.128906 0)"/>
      <use xlink:href="#Verdana-434" transform="translate(191.699219 0)"/>
      <use xlink:href="#Verdana-43d" transform="translate(253.857422 0)"/>
      <use xlink:href="#Verdana-435" transform="translate(317.578125 0)"/>
      <use xlink:href="#Verdana-435" transform="translate(377.148438 0)"/>
      <use xlink:href="#Verdana-20" transform="translate(436.71875 0)"/>
      <use xlink:href="#Verdana-432" transform="translate(471.875 0)"/>
      <use xlink:href="#Verdana-440" transform="translate(531.347656 0)"/>
      <use xlink:href="#Verdana-435" transform="translate(593.652344 0)"/>
      <use xlink:href="#Verdana-43c" transform="translate(653.222656 0)"/>
      <use xlink:href="#Verdana-44f" transform="translate(722.851562 0)"/>
      <use xlink:href="#Verdana-20" transform="translate(782.8125 0)"/>
      <use xlink:href="#Verdana-441" transform="translate(817.96875 0)"/>
      <use xlink:href="#Verdana-43e" transform="translate(871.386719 0)"/>
      <use xlink:href="#Verdana-440" transform="translate(932.080078 0)"/>
      <use xlink:href="#Verdana-442" transform="translate(994.384766 0)"/>
      <use xlink:href="#Verdana-438" transform="translate(1043.994141 0)"/>
      <use xlink:href="#Verdana-440" transform="translate(1108.007812 0)"/>
      <use xlink:href="#Verdana-43e" transform="translate(1170.3125 0)"/>
      <use xlink:href="#Verdana-432" transform="translate(1231.005859 0)"/>
      <use xlink:href="#Verdana-43a" transform="translate(1290.478516 0)"/>
      <use xlink:href="#Verdana-438" transform="translate(1349.658203 0)"/>
      <use xlink:href="#Verdana-20" transform="translate(1413.671875 0)"/>
      <use xlink:href="#Verdana-44d" transform="translate(1448.828125 0)"/>
      <use xlink:href="#Verdana-43b" transform="translate(1503.515625 0)"/>
      <use xlink:href="#Verdana-435" transform="translate(1565.576172 0)"/>
      <use xlink:href="#Verdana-43c" transform="translate(1625.146484 0)"/>
      <use xlink:href="#Verdana-435" transform="translate(1694.775391 0)"/>
      <use xlink:href="#Verdana-43d" transform="translate(1754.345703 0)"/>
      <use xlink:href="#Verdana-442" transform="translate(1818.066406 0)"/>
      <use xlink:href="#Verdana-430" transform="translate(1867.675781 0)"/>
      <use xlink:href="#Verdana-2c" transform="translate(1927.734375 0)"/>
      <use xlink:href="#Verdana-20" transform="translate(1964.111328 0)"/>
      <use xlink:href="#Verdana-441" transform="translate(1999.267578 0)"/>
     </g>
    </g>
   </g>
   <g id="line2d_81">
    <path d="M 73.1396 40.116182 
L 73.1396 40.722282 
L 76.110888 45.285345 
L 76.110888 43.72857 
L 78.823462 49.562309 
L 83.629099 56.414799 
L 83.629099 56.655161 
L 85.779947 61.019821 
L 87.791931 64.06942 
L 89.681899 66.561482 
L 91.463809 69.128911 
L 94.748416 73.114691 
L 96.269446 75.749244 
L 97.719704 77.68184 
L 99.105485 79.866825 
L 101.704901 83.61385 
L 102.927604 83.03795 
L 105.237915 88.14469 
L 107.388763 89.410663 
L 108.410984 91.794774 
L 110.360051 94.314984 
L 112.1944 94.845667 
L 113.926786 98.529575 
L 116.357232 100.991832 
L 117.878262 103.079292 
L 120.02911 104.052672 
L 121.384756 107.485055 
L 123.313717 110.325032 
L 126.846731 114.999146 
L 128.997579 117.220036 
L 130.518609 118.287132 
L 132.437672 121.974017 
L 134.245421 123.050293 
L 135.954064 124.566399 
L 137.966048 125.635561 
L 139.856017 123.565454 
L 141.637926 128.268833 
L 143.323468 130.128483 
L 145.232734 132.980805 
L 147.031787 135.034679 
L 148.73266 136.565273 
L 150.606395 137.805208 
L 152.373869 136.787366 
L 154.278273 134.645088 
L 156.07301 140.5618 
L 157.770024 140.826894 
L 159.574864 141.849638 
L 161.464833 145.128759 
L 163.246742 145.480112 
L 165.095933 146.878021 
L 166.84155 147.464639 
L 168.640603 147.421096 
L 170.479114 150.1205 
L 174.10518 150.693723 
L 175.88709 150.00161 
L 177.681826 153.166355 
L 179.481897 153.108709 
L 181.28095 153.73794 
L 183.073649 154.96254 
L 184.942036 155.616813 
L 186.704749 155.707198 
L 188.527437 156.220696 
L 190.322173 157.988669 
L 192.156521 157.364159 
L 193.953653 157.348229 
L 195.775063 158.749492 
L 197.553584 158.36657 
L 199.345096 159.516651 
L 201.193432 160.100942 
L 202.986734 160.22775 
L 204.774021 161.352123 
L 206.594 160.553745 
L 208.395068 160.90799 
L 210.174717 160.532483 
L 212.003573 160.981791 
L 213.799577 160.996734 
L 215.594792 161.708243 
L 217.414369 160.951427 
L 219.219971 160.627742 
L 221.008271 158.295589 
L 222.827874 158.518585 
L 224.619744 159.847655 
L 226.428515 160.120137 
L 228.245906 159.58964 
L 230.044556 160.743132 
L 231.84114 159.711052 
L 233.648618 160.957086 
L 235.459682 161.054407 
L 237.252029 161.732766 
L 239.068862 159.53926 
L 240.871896 160.715069 
L 242.671352 161.288539 
L 244.475091 161.277444 
L 246.276894 161.107314 
L 248.082942 161.542905 
L 249.886999 161.456178 
L 251.693991 161.832122 
L 253.49788 160.155448 
L 255.293621 161.49478 
L 257.102643 162.206465 
L 264.314035 161.685166 
L 266.122261 162.271305 
L 269.725922 161.795059 
L 273.333236 161.665962 
L 276.943097 161.929756 
L 278.745568 161.559783 
L 280.550196 161.586729 
L 284.157663 161.913822 
L 285.960063 161.925698 
L 287.766193 162.138867 
L 289.569897 161.697411 
L 293.177135 161.874383 
L 294.980048 160.554291 
L 296.784873 161.882662 
L 298.588011 157.342454 
L 300.390583 158.029983 
L 302.195184 160.10981 
L 303.997841 161.135252 
L 305.802279 161.113431 
L 307.606046 159.636887 
L 309.408492 160.623634 
L 311.213323 159.3738 
L 313.01603 160.045188 
L 314.8208 159.881362 
L 316.624284 160.26438 
L 318.427118 159.675966 
L 320.230631 158.397411 
L 322.034494 158.891476 
L 323.838125 159.964759 
L 325.641706 159.599552 
L 327.445961 160.105252 
L 329.249456 159.884438 
L 331.053143 159.39714 
L 332.85671 159.799977 
L 334.660311 156.888482 
L 336.463757 157.260874 
L 338.267217 158.260513 
L 340.070519 157.913009 
L 341.874339 158.39356 
L 345.48153 157.091686 
L 347.285059 159.452495 
L 349.088711 160.061492 
L 350.892406 159.04507 
L 352.696162 160.036027 
L 354.499684 160.019114 
L 356.303137 159.785647 
L 358.10701 160.199317 
L 359.910429 160.238176 
L 361.71418 158.364197 
L 363.517727 160.155242 
L 365.321136 159.927174 
L 367.124896 158.929325 
L 368.928373 160.180641 
L 372.535739 160.156251 
L 374.339343 159.673982 
L 376.142808 160.399503 
L 377.946455 160.204097 
L 379.750059 159.476178 
L 381.553602 159.566102 
L 383.357207 159.971205 
L 386.964399 160.14633 
L 388.767974 159.831836 
L 390.571649 160.088116 
L 392.375215 159.595391 
L 394.178824 159.632811 
L 395.982387 158.871831 
L 397.785987 159.4923 
L 399.589559 156.496532 
L 401.393154 153.755925 
L 403.196738 154.861615 
L 405.000345 155.055435 
L 406.803969 154.391623 
L 408.607559 154.186334 
L 410.411139 158.207893 
L 412.214711 155.945997 
L 414.018299 157.507061 
L 415.821924 157.527311 
L 417.625492 157.788254 
L 419.429082 158.379284 
L 421.232713 155.973068 
L 423.036294 156.711276 
L 424.839875 156.260626 
L 426.643482 155.670178 
L 428.447068 156.668733 
L 430.250648 154.557987 
L 432.054267 155.616645 
L 432.054267 155.616645 
" clip-path="url(#p6295384115)" style="fill: none; stroke: #1f77b4; stroke-width: 1.5; stroke-linecap: square"/>
   </g>
   <g id="line2d_82">
    <path d="M 73.1396 202.482736 
L 83.629099 219.021715 
L 83.629099 219.021715 
L 85.779947 219.240664 
L 97.719704 238.066292 
L 99.105485 237.27133 
L 108.410984 251.943475 
L 112.1944 252.441662 
L 113.926786 255.173147 
L 116.357232 254.085764 
L 117.878262 258.882235 
L 120.02911 244.009654 
L 121.384756 244.480725 
L 123.313717 262.76753 
L 126.846731 264.061133 
L 128.997579 265.445846 
L 130.518609 265.916223 
L 135.954064 269.118812 
L 137.966048 269.012991 
L 139.856017 266.027557 
L 143.323468 271.49475 
L 147.031787 274.610238 
L 148.73266 274.70438 
L 150.606395 274.016024 
L 152.373869 270.23922 
L 154.278273 176.009097 
L 156.07301 182.058461 
L 157.770024 177.049127 
L 159.574864 178.744249 
L 161.464833 185.806262 
L 163.246742 184.407567 
L 165.095933 179.962623 
L 166.84155 190.201762 
L 168.640603 182.095225 
L 170.479114 189.881618 
L 172.215211 185.07375 
L 174.10518 181.850719 
L 175.88709 191.63584 
L 177.681826 185.829311 
L 179.481897 198.386353 
L 181.28095 186.83408 
L 183.073649 191.321938 
L 184.942036 178.894641 
L 186.704749 192.362275 
L 188.527437 179.380145 
L 190.322173 194.433199 
L 192.156521 189.26894 
L 193.953653 190.054127 
L 195.775063 179.677635 
L 197.553584 151.446278 
L 199.345096 154.745077 
L 201.193432 156.907281 
L 202.986734 156.515855 
L 204.774021 156.275302 
L 206.594 156.853129 
L 208.395068 158.419778 
L 210.174717 158.974056 
L 213.799577 160.657633 
L 215.594792 160.885562 
L 217.414369 160.786573 
L 219.219971 162.857903 
L 221.008271 161.935616 
L 224.619744 162.277402 
L 226.428515 157.949693 
L 228.245906 161.077671 
L 230.044556 160.044484 
L 231.84114 163.121041 
L 233.648618 161.268759 
L 235.459682 167.486786 
L 237.252029 168.888711 
L 239.068862 163.768302 
L 240.871896 142.196633 
L 242.671352 142.564422 
L 244.475091 148.438909 
L 246.276894 144.050689 
L 248.082942 147.49729 
L 249.886999 143.824171 
L 251.693991 148.581132 
L 253.49788 147.129395 
L 255.293621 147.440803 
L 257.102643 149.37134 
L 258.909191 149.4645 
L 260.708093 141.072387 
L 262.516591 145.948389 
L 264.314035 153.243743 
L 266.122261 155.263005 
L 267.921911 155.735357 
L 269.725922 141.849116 
L 271.533431 144.845619 
L 273.333236 146.018578 
L 275.1402 148.261558 
L 276.943097 151.577034 
L 278.745568 156.027012 
L 280.550196 155.565562 
L 282.354886 151.75293 
L 284.157663 136.918613 
L 285.960063 134.191695 
L 287.766193 132.845303 
L 289.569897 142.813145 
L 291.371708 138.489533 
L 293.177135 140.596585 
L 294.980048 140.855516 
L 296.784873 137.980442 
L 298.588011 136.083684 
L 300.390583 142.171478 
L 302.195184 142.199096 
L 303.997841 133.909248 
L 305.802279 134.282936 
L 307.606046 139.708112 
L 309.408492 141.771371 
L 311.213323 140.549368 
L 313.01603 136.197497 
L 314.8208 135.390331 
L 316.624284 138.71129 
L 318.427118 137.805505 
L 320.230631 138.844855 
L 322.034494 139.640932 
L 323.838125 146.334782 
L 325.641706 126.202979 
L 327.445961 124.631901 
L 329.249456 120.509088 
L 331.053143 129.841304 
L 332.85671 121.649437 
L 334.660311 120.216612 
L 336.463757 120.148056 
L 338.267217 127.379894 
L 340.070519 128.258284 
L 341.874339 128.862194 
L 343.677834 131.331987 
L 345.48153 132.094257 
L 347.285059 124.220002 
L 349.088711 125.630151 
L 350.892406 132.363255 
L 352.696162 131.468403 
L 354.499684 133.729859 
L 356.303137 124.070162 
L 358.10701 129.992263 
L 359.910429 133.599209 
L 361.71418 126.36423 
L 363.517727 132.361364 
L 365.321136 136.02711 
L 367.124896 137.443284 
L 368.928373 121.206458 
L 370.732094 122.410565 
L 372.535739 123.039782 
L 374.339343 122.302946 
L 376.142808 116.469442 
L 377.946455 112.263074 
L 379.750059 114.752846 
L 381.553602 125.829197 
L 383.357207 122.913481 
L 386.964399 127.315671 
L 388.767974 125.670392 
L 390.571649 119.065584 
L 392.375215 123.093097 
L 394.178824 124.878178 
L 395.982387 129.649918 
L 397.785987 127.321398 
L 399.589559 122.062238 
L 401.393154 120.426796 
L 403.196738 119.915418 
L 405.000345 111.503012 
L 406.803969 115.844104 
L 408.607559 124.442262 
L 410.411139 124.788795 
L 412.214711 108.861522 
L 414.018299 114.970245 
L 415.821924 113.860853 
L 417.625492 115.52719 
L 419.429082 110.957772 
L 421.232713 110.429843 
L 423.036294 113.148733 
L 424.839875 115.601835 
L 426.643482 116.932328 
L 428.447068 114.7505 
L 430.250648 111.413984 
L 432.054267 118.514059 
L 432.054267 118.514059 
" clip-path="url(#p6295384115)" style="fill: none; stroke: #ff7f0e; stroke-width: 1.5; stroke-linecap: square"/>
   </g>
   <g id="line2d_83">
    <path d="M 73.1396 202.482736 
L 76.110888 207.167619 
L 76.110888 210.558899 
L 78.823462 208.272251 
L 81.318788 209.226729 
L 83.629099 212.869437 
L 85.779947 213.451149 
L 87.791931 216.62348 
L 89.681899 216.945803 
L 91.463809 219.755371 
L 94.748416 222.412995 
L 97.719704 222.412995 
L 99.105485 224.59798 
L 101.704901 205.874016 
L 102.927604 203.759536 
L 105.237915 208.713098 
L 107.388763 210.793525 
L 108.410984 203.014136 
L 110.360051 210.558899 
L 113.926786 211.711 
L 116.357232 213.451149 
L 117.878262 216.884245 
L 120.02911 216.260718 
L 121.384756 217.44371 
L 123.313717 216.842429 
L 125.130246 219.706583 
L 126.846731 219.021715 
L 128.997579 221.600513 
L 130.518609 222.412995 
L 132.437672 223.152168 
L 134.245421 223.110228 
L 135.954064 224.419562 
L 137.966048 223.657469 
L 139.856017 221.838087 
L 141.637926 221.332643 
L 143.323468 227.880188 
L 147.031787 228.259967 
L 148.73266 227.93139 
L 150.606395 227.138857 
L 152.373869 227.29178 
L 154.278273 223.146652 
L 156.07301 224.162435 
L 157.770024 223.732647 
L 159.574864 225.914117 
L 161.464833 226.011241 
L 163.246742 224.079395 
L 165.095933 227.563307 
L 166.84155 228.907131 
L 170.479114 228.148406 
L 172.215211 227.591893 
L 174.10518 226.637415 
L 175.88709 225.222564 
L 177.681826 225.792001 
L 179.481897 225.423369 
L 181.28095 225.412087 
L 183.073649 226.95352 
L 184.942036 224.215744 
L 186.704749 225.87786 
L 188.527437 223.393658 
L 190.322173 228.116652 
L 192.156521 227.173558 
L 193.953653 227.796276 
L 195.775063 226.733702 
L 197.553584 227.78408 
L 199.345096 228.041929 
L 201.193432 230.860135 
L 202.986734 229.020241 
L 204.774021 232.364945 
L 206.594 230.928168 
L 208.395068 232.886592 
L 210.174717 233.290579 
L 212.003573 233.238726 
L 215.594792 230.476426 
L 217.414369 232.335538 
L 219.219971 232.829047 
L 221.008271 231.203871 
L 222.827874 230.138447 
L 226.428515 232.880198 
L 228.245906 233.483353 
L 230.044556 234.606167 
L 231.84114 234.645276 
L 233.648618 235.109858 
L 235.459682 234.298933 
L 237.252029 235.141722 
L 239.068862 234.112495 
L 240.871896 234.840571 
L 242.671352 234.543753 
L 244.475091 235.61478 
L 246.276894 235.685737 
L 248.082942 235.628292 
L 249.886999 235.265202 
L 251.693991 235.875742 
L 253.49788 235.918581 
L 255.293621 235.40773 
L 257.102643 236.062953 
L 258.909191 235.831243 
L 262.516591 234.751586 
L 266.122261 236.205792 
L 267.921911 234.329362 
L 269.725922 235.693914 
L 271.533431 235.833654 
L 273.333236 235.808126 
L 276.943097 236.088492 
L 278.745568 236.019161 
L 280.550196 235.582681 
L 282.354886 235.85263 
L 284.157663 235.196437 
L 285.960063 235.005824 
L 287.766193 236.421445 
L 289.569897 235.848238 
L 291.371708 236.468671 
L 293.177135 236.245986 
L 294.980048 236.501879 
L 296.784873 235.607376 
L 298.588011 234.155392 
L 300.390583 236.59738 
L 302.195184 234.549453 
L 303.997841 236.547762 
L 313.01603 236.64409 
L 314.8208 236.878675 
L 318.427118 236.647901 
L 320.230631 236.747075 
L 322.034494 236.66167 
L 323.838125 236.11809 
L 325.641706 236.658841 
L 327.445961 235.467446 
L 329.249456 236.825284 
L 331.053143 236.710009 
L 332.85671 235.206456 
L 334.660311 236.637269 
L 336.463757 234.149561 
L 338.267217 235.305284 
L 340.070519 235.118415 
L 341.874339 233.001319 
L 343.677834 235.219706 
L 345.48153 235.264497 
L 347.285059 235.645909 
L 349.088711 236.588934 
L 350.892406 236.767816 
L 352.696162 236.467742 
L 354.499684 236.871222 
L 356.303137 237.002393 
L 358.10701 236.40766 
L 359.910429 236.787512 
L 361.71418 236.866825 
L 363.517727 236.660306 
L 365.321136 236.909517 
L 367.124896 235.352842 
L 368.928373 236.819575 
L 370.732094 236.195774 
L 372.535739 237.033456 
L 374.339343 236.858421 
L 376.142808 236.509543 
L 377.946455 236.75873 
L 379.750059 236.806398 
L 381.553602 237.03325 
L 383.357207 236.660741 
L 385.160797 237.026321 
L 386.964399 236.502266 
L 388.767974 235.75124 
L 390.571649 236.580775 
L 392.375215 236.051638 
L 394.178824 235.286842 
L 395.982387 236.628475 
L 397.785987 236.950532 
L 399.589559 236.227567 
L 403.196738 235.642018 
L 405.000345 234.376258 
L 406.803969 234.288752 
L 408.607559 235.839471 
L 410.411139 236.932524 
L 412.214711 235.988274 
L 415.821924 236.660612 
L 417.625492 236.090184 
L 419.429082 236.910364 
L 421.232713 235.89881 
L 423.036294 236.509604 
L 424.839875 236.906462 
L 426.643482 236.277194 
L 428.447068 236.89287 
L 430.250648 236.670976 
L 432.054267 236.70333 
L 432.054267 236.70333 
" clip-path="url(#p6295384115)" style="fill: none; stroke: #2ca02c; stroke-width: 1.5; stroke-linecap: square"/>
   </g>
   <g id="line2d_84">
    <path d="M 73.1396 202.482736 
L 85.779947 222.412995 
L 87.791931 222.412995 
L 99.105485 240.251277 
L 101.704901 205.874016 
L 102.927604 210.694124 
L 105.237915 210.059869 
L 107.388763 212.104378 
L 108.410984 215.062902 
L 110.360051 214.201607 
L 112.1944 217.093857 
L 113.926786 213.895985 
L 116.357232 217.728112 
L 117.878262 221.256376 
L 120.02911 219.240664 
L 121.384756 221.378135 
L 123.313717 222.412995 
L 125.130246 224.30377 
L 126.846731 223.298678 
L 128.997579 224.934269 
L 130.518609 225.637369 
L 132.437672 223.152168 
L 134.245421 226.002478 
L 135.954064 227.229131 
L 137.966048 226.913895 
L 139.856017 225.392942 
L 141.637926 226.392954 
L 143.323468 231.478433 
L 145.232734 231.472273 
L 147.031787 232.022224 
L 148.73266 230.941763 
L 150.606395 230.885742 
L 152.373869 230.3787 
L 154.278273 227.794591 
L 156.07301 227.477448 
L 157.770024 230.921208 
L 159.574864 230.401462 
L 161.464833 230.57184 
L 163.246742 231.374842 
L 165.095933 231.73646 
L 166.84155 230.030701 
L 168.640603 233.152252 
L 170.479114 234.365617 
L 172.215211 232.619315 
L 174.10518 222.994707 
L 175.88709 227.998128 
L 177.681826 229.818561 
L 179.481897 228.263383 
L 181.28095 227.574882 
L 183.073649 228.729394 
L 184.942036 227.275207 
L 186.704749 228.42821 
L 188.527437 229.307143 
L 190.322173 229.42055 
L 192.156521 230.242849 
L 193.953653 230.007128 
L 195.775063 230.782041 
L 197.553584 230.707051 
L 201.193432 230.956233 
L 202.986734 233.02019 
L 206.594 233.842472 
L 208.395068 233.848856 
L 210.174717 234.438197 
L 212.003573 234.684538 
L 213.799577 236.428003 
L 215.594792 233.636755 
L 217.414369 284.717463 
L 219.219971 281.321837 
L 221.008271 282.369972 
L 222.827874 282.972101 
L 224.619744 284.431895 
L 226.428515 284.661644 
L 228.245906 286.641473 
L 230.044556 287.752556 
L 231.84114 286.29821 
L 233.648618 287.190372 
L 235.459682 287.349017 
L 237.252029 287.14169 
L 239.068862 287.238947 
L 240.871896 288.75445 
L 242.671352 287.650543 
L 244.475091 287.981316 
L 246.276894 288.723891 
L 248.082942 287.965507 
L 249.886999 288.155961 
L 255.293621 288.053692 
L 257.102643 288.268355 
L 258.909191 288.711198 
L 260.708093 289.629109 
L 262.516591 287.817102 
L 264.314035 288.639464 
L 266.122261 288.774581 
L 267.921911 288.270084 
L 269.725922 288.63681 
L 271.533431 288.734736 
L 273.333236 289.998686 
L 275.1402 290.05224 
L 276.943097 289.103105 
L 278.745568 288.994426 
L 280.550196 289.675209 
L 282.354886 289.104508 
L 284.157663 289.212354 
L 285.960063 289.966833 
L 287.766193 288.946658 
L 289.569897 290.068396 
L 291.371708 289.006751 
L 293.177135 289.248825 
L 294.980048 289.916553 
L 296.784873 287.393033 
L 298.588011 286.44423 
L 300.390583 289.865286 
L 302.195184 289.285836 
L 305.802279 289.877083 
L 307.606046 289.283118 
L 309.408492 290.132197 
L 311.213323 289.766978 
L 313.01603 289.00198 
L 314.8208 289.320247 
L 316.624284 288.673784 
L 320.230631 287.776223 
L 322.034494 287.123185 
L 323.838125 286.074432 
L 325.641706 286.11213 
L 327.445961 285.198637 
L 329.249456 285.081024 
L 331.053143 284.822827 
L 332.85671 281.966448 
L 334.660311 284.449562 
L 336.463757 283.152544 
L 338.267217 277.503507 
L 340.070519 283.431264 
L 341.874339 282.523633 
L 343.677834 285.41546 
L 345.48153 287.552804 
L 347.285059 288.074154 
L 349.088711 290.217019 
L 350.892406 289.635939 
L 352.696162 290.439818 
L 354.499684 289.917367 
L 356.303137 289.669799 
L 358.10701 289.5893 
L 359.910429 288.904751 
L 361.71418 289.625694 
L 363.517727 290.122399 
L 365.321136 289.373736 
L 367.124896 289.464085 
L 368.928373 290.416682 
L 370.732094 289.526674 
L 372.535739 289.075046 
L 374.339343 289.785075 
L 376.142808 289.73962 
L 377.946455 289.401762 
L 379.750059 290.035407 
L 381.553602 289.761726 
L 383.357207 290.238184 
L 385.160797 288.607104 
L 386.964399 289.992838 
L 388.767974 289.830885 
L 390.571649 290.337525 
L 392.375215 289.209115 
L 394.178824 289.397575 
L 397.785987 289.42904 
L 399.589559 287.727675 
L 401.393154 287.526536 
L 403.196738 287.019088 
L 405.000345 287.680491 
L 406.803969 288.021621 
L 408.607559 287.698081 
L 410.411139 287.823333 
L 414.018299 289.110365 
L 415.821924 288.499194 
L 417.625492 287.495869 
L 419.429082 287.310946 
L 421.232713 287.981009 
L 423.036294 288.919773 
L 424.839875 287.251291 
L 426.643482 288.333625 
L 428.447068 288.361941 
L 430.250648 288.54161 
L 432.054267 288.242043 
L 432.054267 288.242043 
" clip-path="url(#p6295384115)" style="fill: none; stroke: #d62728; stroke-width: 1.5; stroke-linecap: square"/>
   </g>
   <g id="patch_3">
    <path d="M 55.193867 302.956 
L 55.193867 27.6 
" style="fill: none; stroke: #000000; stroke-width: 0.8; stroke-linejoin: miter; stroke-linecap: square"/>
   </g>
   <g id="patch_4">
    <path d="M 450 302.956 
L 450 27.6 
" style="fill: none; stroke: #000000; stroke-width: 0.8; stroke-linejoin: miter; stroke-linecap: square"/>
   </g>
   <g id="patch_5">
    <path d="M 55.193867 302.956 
L 450 302.956 
" style="fill: none; stroke: #000000; stroke-width: 0.8; stroke-linejoin: miter; stroke-linecap: square"/>
   </g>
   <g id="patch_6">
    <path d="M 55.193867 27.6 
L 450 27.6 
" style="fill: none; stroke: #000000; stroke-width: 0.8; stroke-linejoin: miter; stroke-linecap: square"/>
   </g>
   <g id="text_11">
    <!-- Сортировка чисел (int32) -->
    <g transform="translate(159.762715 21.6) scale(0.14 -0.14)">
     <defs>
      <path id="Verdana-28" d="M 2447 -1288 
L 1731 -1288 
Q 1178 -653 872 97 
Q 566 847 566 1788 
Q 566 2728 872 3478 
Q 1178 4228 1731 4863 
L 2447 4863 
L 2447 4831 
Q 2194 4603 1964 4304 
Q 1734 4006 1538 3609 
Q 1350 3225 1233 2762 
Q 1116 2300 1116 1788 
Q 1116 1253 1230 809 
Q 1344 366 1538 -34 
Q 1725 -419 1965 -730 
Q 2206 -1041 2447 -1256 
L 2447 -1288 
z
" transform="scale(0.015625)"/>
      <path id="Verdana-69" d="M 1209 4075 
L 547 4075 
L 547 4684 
L 1209 4684 
L 1209 4075 
z
M 1172 0 
L 584 0 
L 584 3491 
L 1172 3491 
L 1172 0 
z
" transform="scale(0.015625)"/>
      <path id="Verdana-6e" d="M 3497 0 
L 2909 0 
L 2909 1988 
Q 2909 2228 2881 2439 
Q 2853 2650 2778 2769 
Q 2700 2900 2553 2964 
Q 2406 3028 2172 3028 
Q 1931 3028 1668 2909 
Q 1406 2791 1166 2606 
L 1166 0 
L 578 0 
L 578 3491 
L 1166 3491 
L 1166 3103 
Q 1441 3331 1734 3459 
Q 2028 3588 2338 3588 
Q 2903 3588 3200 3247 
Q 3497 2906 3497 2266 
L 3497 0 
z
" transform="scale(0.015625)"/>
      <path id="Verdana-74" d="M 2391 31 
Q 2225 -13 2029 -41 
Q 1834 -69 1681 -69 
Q 1147 -69 869 218 
Q 591 506 591 1141 
L 591 2997 
L 194 2997 
L 194 3491 
L 591 3491 
L 591 4494 
L 1178 4494 
L 1178 3491 
L 2391 3491 
L 2391 2997 
L 1178 2997 
L 1178 1406 
Q 1178 1131 1190 976 
Q 1203 822 1278 688 
Q 1347 563 1467 505 
Q 1588 447 1834 447 
Q 1978 447 2134 489 
Q 2291 531 2359 559 
L 2391 559 
L 2391 31 
z
" transform="scale(0.015625)"/>
      <path id="Verdana-29" d="M 2341 1788 
Q 2341 847 2034 97 
Q 1728 -653 1175 -1288 
L 459 -1288 
L 459 -1256 
Q 700 -1041 942 -730 
Q 1184 -419 1369 -34 
Q 1563 366 1677 809 
Q 1791 1253 1791 1788 
Q 1791 2300 1675 2762 
Q 1559 3225 1369 3609 
Q 1172 4006 942 4304 
Q 713 4603 459 4831 
L 459 4863 
L 1175 4863 
Q 1728 4228 2034 3478 
Q 2341 2728 2341 1788 
z
" transform="scale(0.015625)"/>
     </defs>
     <use xlink:href="#Verdana-421"/>
     <use xlink:href="#Verdana-43e" transform="translate(69.824219 0)"/>
     <use xlink:href="#Verdana-440" transform="translate(130.517578 0)"/>
     <use xlink:href="#Verdana-442" transform="translate(192.822266 0)"/>
     <use xlink:href="#Verdana-438" transform="translate(242.431641 0)"/>
     <use xlink:href="#Verdana-440" transform="translate(306.445312 0)"/>
     <use xlink:href="#Verdana-43e" transform="translate(368.75 0)"/>
     <use xlink:href="#Verdana-432" transform="translate(429.443359 0)"/>
     <use xlink:href="#Verdana-43a" transform="translate(488.916016 0)"/>
     <use xlink:href="#Verdana-430" transform="translate(548.095703 0)"/>
     <use xlink:href="#Verdana-20" transform="translate(608.154297 0)"/>
     <use xlink:href="#Verdana-447" transform="translate(643.310547 0)"/>
     <use xlink:href="#Verdana-438" transform="translate(703.857422 0)"/>
     <use xlink:href="#Verdana-441" transform="translate(767.871094 0)"/>
     <use xlink:href="#Verdana-435" transform="translate(821.289062 0)"/>
     <use xlink:href="#Verdana-43b" transform="translate(880.859375 0)"/>
     <use xlink:href="#Verdana-20" transform="translate(942.919922 0)"/>
     <use xlink:href="#Verdana-28" transform="translate(978.076172 0)"/>
     <use xlink:href="#Verdana-69" transform="translate(1023.486328 0)"/>
     <use xlink:href="#Verdana-6e" transform="translate(1050.927734 0)"/>
     <use xlink:href="#Verdana-74" transform="translate(1114.208984 0)"/>
     <use xlink:href="#Verdana-33" transform="translate(1153.613281 0)"/>
     <use xlink:href="#Verdana-32" transform="translate(1217.1875 0)"/>
     <use xlink:href="#Verdana-29" transform="translate(1280.761719 0)"/>
    </g>
   </g>
   <g id="legend_1">
    <g id="patch_7">
     <path d="M 62.193867 94.04375 
L 184.182929 94.04375 
Q 186.182929 94.04375 186.182929 92.04375 
L 186.182929 34.6 
Q 186.182929 32.6 184.182929 32.6 
L 62.193867 32.6 
Q 60.193867 32.6 60.193867 34.6 
L 60.193867 92.04375 
Q 60.193867 94.04375 62.193867 94.04375 
z
" style="fill: #ffffff; opacity: 0.8; stroke: #cccccc; stroke-linejoin: miter"/>
    </g>
    <g id="line2d_85">
     <path d="M 64.193867 40.698437 
L 74.193867 40.698437 
L 84.193867 40.698437 
" style="fill: none; stroke: #1f77b4; stroke-width: 1.5; stroke-linecap: square"/>
    </g>
    <g id="text_12">
     <!-- burst::radix_sort -->
     <g transform="translate(92.193867 44.198437) scale(0.1 -0.1)">
      <defs>
       <path id="Verdana-62" d="M 3650 1772 
Q 3650 1334 3526 984 
Q 3403 634 3194 397 
Q 2972 150 2706 26 
Q 2441 -97 2122 -97 
Q 1825 -97 1603 -26 
Q 1381 44 1166 163 
L 1128 0 
L 578 0 
L 578 4863 
L 1166 4863 
L 1166 3125 
Q 1413 3328 1691 3458 
Q 1969 3588 2316 3588 
Q 2934 3588 3292 3113 
Q 3650 2638 3650 1772 
z
M 3044 1756 
Q 3044 2381 2837 2704 
Q 2631 3028 2172 3028 
Q 1916 3028 1653 2917 
Q 1391 2806 1166 2631 
L 1166 631 
Q 1416 519 1595 475 
Q 1775 431 2003 431 
Q 2491 431 2767 751 
Q 3044 1072 3044 1756 
z
" transform="scale(0.015625)"/>
       <path id="Verdana-75" d="M 3472 0 
L 2884 0 
L 2884 388 
Q 2588 153 2316 28 
Q 2044 -97 1716 -97 
Q 1166 -97 859 239 
Q 553 575 553 1225 
L 553 3491 
L 1141 3491 
L 1141 1503 
Q 1141 1238 1166 1048 
Q 1191 859 1272 725 
Q 1356 588 1490 525 
Q 1625 463 1881 463 
Q 2109 463 2379 581 
Q 2650 700 2884 884 
L 2884 3491 
L 3472 3491 
L 3472 0 
z
" transform="scale(0.015625)"/>
       <path id="Verdana-72" d="M 2756 2850 
L 2725 2850 
Q 2594 2881 2470 2895 
Q 2347 2909 2178 2909 
Q 1906 2909 1653 2789 
Q 1400 2669 1166 2478 
L 1166 0 
L 578 0 
L 578 3491 
L 1166 3491 
L 1166 2975 
Q 1516 3256 1783 3373 
Q 2050 3491 2328 3491 
Q 2481 3491 2550 3483 
Q 2619 3475 2756 3453 
L 2756 2850 
z
" transform="scale(0.015625)"/>
       <path id="Verdana-73" d="M 3072 1006 
Q 3072 528 2676 222 
Q 2281 -84 1597 -84 
Q 1209 -84 886 8 
Q 563 100 344 209 
L 344 869 
L 375 869 
Q 653 659 993 536 
Q 1334 413 1647 413 
Q 2034 413 2253 538 
Q 2472 663 2472 931 
Q 2472 1138 2353 1244 
Q 2234 1350 1897 1425 
Q 1772 1453 1570 1490 
Q 1369 1528 1203 1572 
Q 744 1694 551 1930 
Q 359 2166 359 2509 
Q 359 2725 448 2915 
Q 538 3106 719 3256 
Q 894 3403 1164 3489 
Q 1434 3575 1769 3575 
Q 2081 3575 2401 3498 
Q 2722 3422 2934 3313 
L 2934 2684 
L 2903 2684 
Q 2678 2850 2356 2964 
Q 2034 3078 1725 3078 
Q 1403 3078 1181 2954 
Q 959 2831 959 2588 
Q 959 2372 1094 2263 
Q 1225 2153 1519 2084 
Q 1681 2047 1882 2009 
Q 2084 1972 2219 1941 
Q 2628 1847 2850 1619 
Q 3072 1388 3072 1006 
z
" transform="scale(0.015625)"/>
       <path id="Verdana-3a" d="M 1828 2600 
L 1081 2600 
L 1081 3491 
L 1828 3491 
L 1828 2600 
z
M 1828 0 
L 1081 0 
L 1081 891 
L 1828 891 
L 1828 0 
z
" transform="scale(0.015625)"/>
       <path id="Verdana-61" d="M 3291 0 
L 2706 0 
L 2706 372 
Q 2628 319 2495 223 
Q 2363 128 2238 72 
Q 2091 0 1900 -48 
Q 1709 -97 1453 -97 
Q 981 -97 653 215 
Q 325 528 325 1013 
Q 325 1409 495 1654 
Q 666 1900 981 2041 
Q 1300 2181 1747 2231 
Q 2194 2281 2706 2306 
L 2706 2397 
Q 2706 2597 2636 2728 
Q 2566 2859 2434 2934 
Q 2309 3006 2134 3031 
Q 1959 3056 1769 3056 
Q 1538 3056 1253 2995 
Q 969 2934 666 2819 
L 634 2819 
L 634 3416 
Q 806 3463 1131 3519 
Q 1456 3575 1772 3575 
Q 2141 3575 2414 3514 
Q 2688 3453 2888 3306 
Q 3084 3163 3187 2934 
Q 3291 2706 3291 2369 
L 3291 0 
z
M 2706 859 
L 2706 1831 
Q 2438 1816 2073 1784 
Q 1709 1753 1497 1694 
Q 1244 1622 1087 1470 
Q 931 1319 931 1053 
Q 931 753 1112 601 
Q 1294 450 1666 450 
Q 1975 450 2231 570 
Q 2488 691 2706 859 
z
" transform="scale(0.015625)"/>
       <path id="Verdana-64" d="M 3409 0 
L 2822 0 
L 2822 366 
Q 2569 147 2294 25 
Q 2019 -97 1697 -97 
Q 1072 -97 705 384 
Q 338 866 338 1719 
Q 338 2163 464 2509 
Q 591 2856 806 3100 
Q 1019 3338 1301 3463 
Q 1584 3588 1888 3588 
Q 2163 3588 2375 3530 
Q 2588 3472 2822 3350 
L 2822 4863 
L 3409 4863 
L 3409 0 
z
M 2822 859 
L 2822 2863 
Q 2584 2969 2396 3009 
Q 2209 3050 1988 3050 
Q 1494 3050 1219 2706 
Q 944 2363 944 1731 
Q 944 1109 1156 786 
Q 1369 463 1838 463 
Q 2088 463 2344 573 
Q 2600 684 2822 859 
z
" transform="scale(0.015625)"/>
       <path id="Verdana-78" d="M 3600 0 
L 2859 0 
L 1869 1341 
L 872 0 
L 188 0 
L 1550 1741 
L 200 3491 
L 941 3491 
L 1925 2172 
L 2913 3491 
L 3600 3491 
L 2228 1772 
L 3600 0 
z
" transform="scale(0.015625)"/>
       <path id="Verdana-5f" d="M 4081 -938 
L -13 -938 
L -13 -563 
L 4081 -563 
L 4081 -938 
z
" transform="scale(0.015625)"/>
       <path id="Verdana-6f" d="M 3553 1744 
Q 3553 891 3115 397 
Q 2678 -97 1944 -97 
Q 1203 -97 767 397 
Q 331 891 331 1744 
Q 331 2597 767 3092 
Q 1203 3588 1944 3588 
Q 2678 3588 3115 3092 
Q 3553 2597 3553 1744 
z
M 2947 1744 
Q 2947 2422 2681 2751 
Q 2416 3081 1944 3081 
Q 1466 3081 1202 2751 
Q 938 2422 938 1744 
Q 938 1088 1203 748 
Q 1469 409 1944 409 
Q 2413 409 2680 745 
Q 2947 1081 2947 1744 
z
" transform="scale(0.015625)"/>
      </defs>
      <use xlink:href="#Verdana-62"/>
      <use xlink:href="#Verdana-75" transform="translate(62.304688 0)"/>
      <use xlink:href="#Verdana-72" transform="translate(125.585938 0)"/>
      <use xlink:href="#Verdana-73" transform="translate(168.261719 0)"/>
      <use xlink:href="#Verdana-74" transform="translate(220.361328 0)"/>
      <use xlink:href="#Verdana-3a" transform="translate(259.765625 0)"/>
      <use xlink:href="#Verdana-3a" transform="translate(305.175781 0)"/>
      <use xlink:href="#Verdana-72" transform="translate(350.585938 0)"/>
      <use xlink:href="#Verdana-61" transform="translate(391.511719 0)"/>
      <use xlink:href="#Verdana-64" transform="translate(451.570312 0)"/>
      <use xlink:href="#Verdana-69" transform="translate(513.875 0)"/>
      <use xlink:href="#Verdana-78" transform="translate(541.316406 0)"/>
      <use xlink:href="#Verdana-5f" transform="translate(600.496094 0)"/>
      <use xlink:href="#Verdana-73" transform="translate(664.070312 0)"/>
      <use xlink:href="#Verdana-6f" transform="translate(716.169922 0)"/>
      <use xlink:href="#Verdana-72" transform="translate(776.863281 0)"/>
      <use xlink:href="#Verdana-74" transform="translate(819.539062 0)"/>
     </g>
    </g>
    <g id="line2d_86">
     <path d="M 64.193867 55.309375 
L 74.193867 55.309375 
L 84.193867 55.309375 
" style="fill: none; stroke: #ff7f0e; stroke-width: 1.5; stroke-linecap: square"/>
    </g>
    <g id="text_13">
     <!-- std::stable_sort -->
     <g transform="translate(92.193867 58.809375) scale(0.1 -0.1)">
      <defs>
       <path id="Verdana-6c" d="M 1172 0 
L 584 0 
L 584 4863 
L 1172 4863 
L 1172 0 
z
" transform="scale(0.015625)"/>
       <path id="Verdana-65" d="M 3500 1684 
L 928 1684 
Q 928 1363 1025 1123 
Q 1122 884 1291 731 
Q 1453 581 1676 506 
Q 1900 431 2169 431 
Q 2525 431 2886 573 
Q 3247 716 3400 853 
L 3431 853 
L 3431 213 
Q 3134 88 2825 3 
Q 2516 -81 2175 -81 
Q 1306 -81 818 389 
Q 331 859 331 1725 
Q 331 2581 798 3084 
Q 1266 3588 2028 3588 
Q 2734 3588 3117 3175 
Q 3500 2763 3500 2003 
L 3500 1684 
z
M 2928 2134 
Q 2925 2597 2695 2850 
Q 2466 3103 1997 3103 
Q 1525 3103 1245 2825 
Q 966 2547 928 2134 
L 2928 2134 
z
" transform="scale(0.015625)"/>
      </defs>
      <use xlink:href="#Verdana-73"/>
      <use xlink:href="#Verdana-74" transform="translate(52.099609 0)"/>
      <use xlink:href="#Verdana-64" transform="translate(91.503906 0)"/>
      <use xlink:href="#Verdana-3a" transform="translate(153.808594 0)"/>
      <use xlink:href="#Verdana-3a" transform="translate(199.21875 0)"/>
      <use xlink:href="#Verdana-73" transform="translate(244.628906 0)"/>
      <use xlink:href="#Verdana-74" transform="translate(296.728516 0)"/>
      <use xlink:href="#Verdana-61" transform="translate(336.132812 0)"/>
      <use xlink:href="#Verdana-62" transform="translate(396.191406 0)"/>
      <use xlink:href="#Verdana-6c" transform="translate(458.496094 0)"/>
      <use xlink:href="#Verdana-65" transform="translate(485.9375 0)"/>
      <use xlink:href="#Verdana-5f" transform="translate(545.507812 0)"/>
      <use xlink:href="#Verdana-73" transform="translate(609.082031 0)"/>
      <use xlink:href="#Verdana-6f" transform="translate(661.181641 0)"/>
      <use xlink:href="#Verdana-72" transform="translate(721.875 0)"/>
      <use xlink:href="#Verdana-74" transform="translate(764.550781 0)"/>
     </g>
    </g>
    <g id="line2d_87">
     <path d="M 64.193867 69.920312 
L 74.193867 69.920312 
L 84.193867 69.920312 
" style="fill: none; stroke: #2ca02c; stroke-width: 1.5; stroke-linecap: square"/>
    </g>
    <g id="text_14">
     <!-- std::sort -->
     <g transform="translate(92.193867 73.420312) scale(0.1 -0.1)">
      <use xlink:href="#Verdana-73"/>
      <use xlink:href="#Verdana-74" transform="translate(52.099609 0)"/>
      <use xlink:href="#Verdana-64" transform="translate(91.503906 0)"/>
      <use xlink:href="#Verdana-3a" transform="translate(153.808594 0)"/>
      <use xlink:href="#Verdana-3a" transform="translate(199.21875 0)"/>
      <use xlink:href="#Verdana-73" transform="translate(244.628906 0)"/>
      <use xlink:href="#Verdana-6f" transform="translate(296.728516 0)"/>
      <use xlink:href="#Verdana-72" transform="translate(357.421875 0)"/>
      <use xlink:href="#Verdana-74" transform="translate(400.097656 0)"/>
     </g>
    </g>
    <g id="line2d_88">
     <path d="M 64.193867 84.53125 
L 74.193867 84.53125 
L 84.193867 84.53125 
" style="fill: none; stroke: #d62728; stroke-width: 1.5; stroke-linecap: square"/>
    </g>
    <g id="text_15">
     <!-- boost::spreadsort -->
     <g transform="translate(92.193867 88.03125) scale(0.1 -0.1)">
      <defs>
       <path id="Verdana-70" d="M 3650 1788 
Q 3650 1363 3528 1011 
Q 3406 659 3184 416 
Q 2978 184 2698 57 
Q 2419 -69 2106 -69 
Q 1834 -69 1614 -9 
Q 1394 50 1166 175 
L 1166 -1288 
L 578 -1288 
L 578 3491 
L 1166 3491 
L 1166 3125 
Q 1400 3322 1692 3455 
Q 1984 3588 2316 3588 
Q 2947 3588 3298 3111 
Q 3650 2634 3650 1788 
z
M 3044 1772 
Q 3044 2403 2828 2715 
Q 2613 3028 2166 3028 
Q 1913 3028 1656 2918 
Q 1400 2809 1166 2631 
L 1166 653 
Q 1416 541 1595 500 
Q 1775 459 2003 459 
Q 2494 459 2769 790 
Q 3044 1122 3044 1772 
z
" transform="scale(0.015625)"/>
      </defs>
      <use xlink:href="#Verdana-62"/>
      <use xlink:href="#Verdana-6f" transform="translate(62.304688 0)"/>
      <use xlink:href="#Verdana-6f" transform="translate(122.998047 0)"/>
      <use xlink:href="#Verdana-73" transform="translate(183.691406 0)"/>
      <use xlink:href="#Verdana-74" transform="translate(235.791016 0)"/>
      <use xlink:href="#Verdana-3a" transform="translate(275.195312 0)"/>
      <use xlink:href="#Verdana-3a" transform="translate(320.605469 0)"/>
      <use xlink:href="#Verdana-73" transform="translate(366.015625 0)"/>
      <use xlink:href="#Verdana-70" transform="translate(418.115234 0)"/>
      <use xlink:href="#Verdana-72" transform="translate(480.419922 0)"/>
      <use xlink:href="#Verdana-65" transform="translate(523.095703 0)"/>
      <use xlink:href="#Verdana-61" transform="translate(582.666016 0)"/>
      <use xlink:href="#Verdana-64" transform="translate(642.724609 0)"/>
      <use xlink:href="#Verdana-73" transform="translate(705.029297 0)"/>
      <use xlink:href="#Verdana-6f" transform="translate(757.128906 0)"/>
      <use xlink:href="#Verdana-72" transform="translate(817.822266 0)"/>
      <use xlink:href="#Verdana-74" transform="translate(860.498047 0)"/>
     </g>
    </g>
   </g>
  </g>
 </g>
 <defs>
  <clipPath id="p6295384115">
   <rect x="55.193867" y="27.6" width="394.806133" height="275.356"/>
  </clipPath>
 </defs>
</svg>
